<svg width="198" height="198" viewBox="0 0 198 198" fill="none" xmlns="http://www.w3.org/2000/svg">
<g clip-path="url(#clip0_315_827)">
<rect width="198" height="198" rx="4" fill="#2460FF"/>
<path d="M147.409 65.625V64.2273C147.409 60.3636 147.727 57.2841 148.364 54.9886C149.023 52.6932 149.977 50.8523 151.227 49.4659C152.477 48.0568 154 46.7727 155.795 45.6136C157.227 44.7045 158.5 43.7841 159.614 42.8523C160.75 41.8977 161.648 40.875 162.307 39.7841C162.966 38.6932 163.295 37.4545 163.295 36.0682C163.295 34.7273 162.977 33.5455 162.341 32.5227C161.705 31.5 160.83 30.7159 159.716 30.1705C158.625 29.6023 157.409 29.3182 156.068 29.3182C154.727 29.3182 153.466 29.625 152.284 30.2386C151.125 30.8523 150.17 31.7273 149.42 32.8636C148.693 33.9773 148.318 35.3295 148.295 36.9205H132.614C132.682 32.1477 133.784 28.2386 135.92 25.1932C138.08 22.1477 140.932 19.8977 144.477 18.4432C148.023 16.9659 151.932 16.2273 156.205 16.2273C160.886 16.2273 165.045 16.9545 168.682 18.4091C172.341 19.8636 175.216 22.0114 177.307 24.8523C179.398 27.6932 180.443 31.1705 180.443 35.2841C180.443 37.9886 179.989 40.375 179.08 42.4432C178.17 44.5114 176.898 46.3409 175.261 47.9318C173.648 49.5 171.75 50.9318 169.568 52.2273C167.864 53.2273 166.443 54.2727 165.307 55.3636C164.193 56.4545 163.352 57.7045 162.784 59.1136C162.216 60.5 161.932 62.2045 161.932 64.2273V65.625H147.409ZM154.943 87.9886C152.489 87.9886 150.386 87.125 148.636 85.3977C146.909 83.6705 146.057 81.5795 146.08 79.125C146.057 76.7159 146.909 74.6591 148.636 72.9545C150.386 71.2273 152.489 70.3636 154.943 70.3636C157.284 70.3636 159.341 71.2273 161.114 72.9545C162.886 74.6591 163.784 76.7159 163.807 79.125C163.784 80.7614 163.352 82.25 162.511 83.5909C161.693 84.9318 160.614 86 159.273 86.7955C157.955 87.5909 156.511 87.9886 154.943 87.9886Z" fill="#4B8AFF"/>
<path d="M17.7386 124V110.909H18.9339V122.926H25.1726V124H17.7386ZM27.8636 124V110.909H35.4574V111.983H29.0589V116.911H35.0547V117.985H29.0589V122.926H35.5852V124H27.8636ZM37.7585 111.983V110.909H47.2507V111.983H43.1023V124H41.907V111.983H37.7585ZM63.7294 110.909H64.9247V119.577C64.9247 120.467 64.7159 121.264 64.2983 121.967C63.8807 122.666 63.299 123.218 62.5533 123.623C61.8118 124.023 60.9489 124.224 59.9645 124.224C58.9844 124.224 58.1214 124.021 57.3757 123.616C56.63 123.212 56.0483 122.66 55.6307 121.961C55.2131 121.262 55.0043 120.467 55.0043 119.577V110.909H56.1996V119.494C56.1996 120.188 56.3551 120.808 56.6662 121.354C56.9773 121.895 57.4141 122.321 57.9766 122.632C58.5433 122.943 59.206 123.099 59.9645 123.099C60.723 123.099 61.3857 122.943 61.9524 122.632C62.5192 122.321 62.956 121.895 63.2628 121.354C63.5739 120.808 63.7294 120.188 63.7294 119.494V110.909ZM75.5067 114.182C75.4343 113.453 75.1126 112.874 74.5415 112.443C73.9705 112.013 73.2525 111.798 72.3874 111.798C71.7781 111.798 71.2411 111.902 70.7766 112.111C70.3164 112.32 69.9542 112.609 69.69 112.98C69.43 113.347 69.3001 113.764 69.3001 114.233C69.3001 114.578 69.3746 114.881 69.5238 115.141C69.6729 115.401 69.8732 115.624 70.1246 115.812C70.3803 115.995 70.6616 116.153 70.9684 116.285C71.2795 116.417 71.5927 116.528 71.908 116.617L73.2887 117.013C73.7063 117.129 74.1239 117.276 74.5415 117.455C74.9592 117.634 75.3406 117.859 75.6857 118.132C76.0352 118.401 76.3143 118.731 76.5231 119.123C76.7362 119.511 76.8427 119.977 76.8427 120.523C76.8427 121.222 76.6616 121.85 76.2994 122.408C75.9371 122.967 75.4173 123.41 74.7397 123.738C74.0621 124.062 73.2504 124.224 72.3043 124.224C71.4137 124.224 70.6403 124.077 69.984 123.783C69.3278 123.484 68.8121 123.073 68.4371 122.549C68.0621 122.025 67.8512 121.418 67.8043 120.727H69.0316C69.0742 121.243 69.2447 121.68 69.543 122.038C69.8413 122.396 70.229 122.668 70.7063 122.856C71.1836 123.039 71.7163 123.131 72.3043 123.131C72.9563 123.131 73.5359 123.022 74.043 122.805C74.5543 122.583 74.9549 122.276 75.2447 121.884C75.5387 121.488 75.6857 121.028 75.6857 120.504C75.6857 120.06 75.5707 119.69 75.3406 119.391C75.1104 119.089 74.7887 118.835 74.3754 118.631C73.9663 118.426 73.4911 118.245 72.9499 118.087L71.3839 117.627C70.3569 117.32 69.56 116.896 68.9933 116.355C68.4265 115.814 68.1431 115.124 68.1431 114.284C68.1431 113.581 68.3306 112.963 68.7056 112.43C69.0849 111.893 69.5962 111.476 70.2397 111.178C70.8874 110.875 71.614 110.724 72.4194 110.724C73.2333 110.724 73.9535 110.873 74.5799 111.171C75.2063 111.469 75.7028 111.881 76.0692 112.405C76.44 112.925 76.6381 113.517 76.6637 114.182H75.5067ZM84.8008 124H83.5479L88.31 110.909H89.5884L94.3505 124H93.0977L88.994 112.462H88.9045L84.8008 124ZM85.7021 118.982H92.1964V120.056H85.7021V118.982ZM103.702 114.182C103.63 113.453 103.308 112.874 102.737 112.443C102.166 112.013 101.448 111.798 100.583 111.798C99.9734 111.798 99.4364 111.902 98.9719 112.111C98.5117 112.32 98.1495 112.609 97.8853 112.98C97.6254 113.347 97.4954 113.764 97.4954 114.233C97.4954 114.578 97.57 114.881 97.7191 115.141C97.8683 115.401 98.0685 115.624 98.32 115.812C98.5756 115.995 98.8569 116.153 99.1637 116.285C99.4748 116.417 99.788 116.528 100.103 116.617L101.484 117.013C101.902 117.129 102.319 117.276 102.737 117.455C103.154 117.634 103.536 117.859 103.881 118.132C104.23 118.401 104.51 118.731 104.718 119.123C104.931 119.511 105.038 119.977 105.038 120.523C105.038 121.222 104.857 121.85 104.495 122.408C104.132 122.967 103.613 123.41 102.935 123.738C102.257 124.062 101.446 124.224 100.5 124.224C99.609 124.224 98.8356 124.077 98.1793 123.783C97.5231 123.484 97.0075 123.073 96.6325 122.549C96.2575 122.025 96.0465 121.418 95.9996 120.727H97.2269C97.2695 121.243 97.44 121.68 97.7383 122.038C98.0366 122.396 98.4244 122.668 98.9016 122.856C99.3789 123.039 99.9116 123.131 100.5 123.131C101.152 123.131 101.731 123.022 102.238 122.805C102.75 122.583 103.15 122.276 103.44 121.884C103.734 121.488 103.881 121.028 103.881 120.504C103.881 120.06 103.766 119.69 103.536 119.391C103.306 119.089 102.984 118.835 102.571 118.631C102.162 118.426 101.686 118.245 101.145 118.087L99.5792 117.627C98.5522 117.32 97.7553 116.896 97.1886 116.355C96.6218 115.814 96.3384 115.124 96.3384 114.284C96.3384 113.581 96.5259 112.963 96.9009 112.43C97.2802 111.893 97.7915 111.476 98.435 111.178C99.0827 110.875 99.8093 110.724 100.615 110.724C101.429 110.724 102.149 110.873 102.775 111.171C103.402 111.469 103.898 111.881 104.265 112.405C104.635 112.925 104.833 113.517 104.859 114.182H103.702ZM107.914 124V110.909H109.11V117.96H109.225L115.617 110.909H117.189L111.596 116.962L117.164 124H115.706L110.855 117.793L109.11 119.749V124H107.914ZM123.281 110.909H124.662L128.542 117.122H128.657L132.537 110.909H133.917L129.194 118.33V124H128.005V118.33L123.281 110.909ZM146.279 117.455C146.279 118.818 146.037 120.005 145.551 121.015C145.065 122.021 144.396 122.8 143.544 123.354C142.696 123.904 141.72 124.179 140.616 124.179C139.512 124.179 138.534 123.904 137.682 123.354C136.834 122.8 136.167 122.021 135.681 121.015C135.2 120.005 134.959 118.818 134.959 117.455C134.959 116.091 135.2 114.906 135.681 113.901C136.167 112.891 136.836 112.111 137.689 111.561C138.541 111.007 139.517 110.73 140.616 110.73C141.72 110.73 142.696 111.007 143.544 111.561C144.396 112.111 145.065 112.891 145.551 113.901C146.037 114.906 146.279 116.091 146.279 117.455ZM145.116 117.455C145.116 116.283 144.92 115.279 144.528 114.444C144.136 113.604 143.601 112.963 142.924 112.52C142.246 112.077 141.477 111.855 140.616 111.855C139.76 111.855 138.993 112.077 138.315 112.52C137.637 112.963 137.1 113.602 136.704 114.438C136.312 115.273 136.116 116.278 136.116 117.455C136.116 118.626 136.312 119.63 136.704 120.465C137.096 121.3 137.631 121.942 138.309 122.389C138.986 122.832 139.755 123.054 140.616 123.054C141.477 123.054 142.246 122.832 142.924 122.389C143.605 121.946 144.142 121.307 144.534 120.472C144.926 119.632 145.12 118.626 145.116 117.455ZM157.895 110.909H159.091V119.577C159.091 120.467 158.882 121.264 158.464 121.967C158.047 122.666 157.465 123.218 156.719 123.623C155.978 124.023 155.115 124.224 154.131 124.224C153.15 124.224 152.287 124.021 151.542 123.616C150.796 123.212 150.214 122.66 149.797 121.961C149.379 121.262 149.17 120.467 149.17 119.577V110.909H150.366V119.494C150.366 120.188 150.521 120.808 150.832 121.354C151.143 121.895 151.58 122.321 152.143 122.632C152.709 122.943 153.372 123.099 154.131 123.099C154.889 123.099 155.552 122.943 156.118 122.632C156.685 122.321 157.122 121.895 157.429 121.354C157.74 120.808 157.895 120.188 157.895 119.494V110.909Z" fill="#FAFAFF"/>
<path d="M29.7045 138.614C31.1932 138.614 32.5625 138.949 33.8125 139.619C35.0739 140.278 36.1705 141.278 37.1023 142.619C38.0455 143.949 38.7727 145.631 39.2841 147.665C39.8068 149.699 40.0682 152.091 40.0682 154.841C40.0682 157.193 39.9034 159.528 39.5739 161.847C39.2443 164.165 38.6818 166.278 37.8864 168.188C37.0909 170.097 36 171.625 34.6136 172.773C33.2273 173.909 31.4773 174.477 29.3636 174.477C27.6364 174.477 26.1307 174.085 24.8466 173.301C23.5625 172.506 22.5455 171.415 21.7955 170.028C21.0455 168.631 20.6136 167.023 20.5 165.205H21.5909C21.7614 167.591 22.5284 169.551 23.892 171.085C25.2557 172.619 27.0795 173.386 29.3636 173.386C32.5341 173.386 34.9261 171.75 36.5398 168.477C38.1648 165.205 38.9773 160.5 38.9773 154.364H38.8409C38.4773 155.523 37.8466 156.557 36.9489 157.466C36.0511 158.364 34.9886 159.074 33.7614 159.597C32.5341 160.108 31.25 160.364 29.9091 160.364C28.0682 160.364 26.3864 159.886 24.8636 158.932C23.3523 157.977 22.142 156.676 21.233 155.028C20.3352 153.381 19.8864 151.523 19.8864 149.455C19.8864 147.523 20.2955 145.733 21.1136 144.085C21.9432 142.437 23.0909 141.114 24.5568 140.114C26.0341 139.114 27.75 138.614 29.7045 138.614ZM29.7045 139.705C28.0227 139.705 26.5227 140.142 25.2045 141.017C23.8977 141.892 22.8636 143.068 22.1023 144.545C21.3523 146.023 20.9773 147.659 20.9773 149.455C20.9773 151.295 21.375 152.96 22.1705 154.449C22.9773 155.926 24.0568 157.102 25.4091 157.977C26.7727 158.841 28.2955 159.273 29.9773 159.273C31.3068 159.273 32.5398 159 33.6761 158.455C34.8125 157.898 35.7784 157.136 36.5739 156.17C37.3807 155.205 37.9545 154.108 38.2955 152.881C38.6477 151.642 38.6932 150.341 38.4318 148.977C38.0455 146.932 37.4375 145.222 36.608 143.847C35.7898 142.472 34.7898 141.437 33.608 140.744C32.4375 140.051 31.1364 139.705 29.7045 139.705Z" fill="#FAFAFF"/>
<path d="M58.6413 147.909H59.9709L61.6456 150.127L61.9268 150.498L63.9851 153.227H62.6555L61.147 151.214L60.8786 150.856L58.6413 147.909ZM64.4709 145.455C64.4709 146.818 64.228 148.005 63.7422 149.015C63.2564 150.021 62.5874 150.8 61.7351 151.354C60.8871 151.904 59.9112 152.179 58.8075 152.179C57.7038 152.179 56.7259 151.904 55.8736 151.354C55.0256 150.8 54.3587 150.021 53.8729 149.015C53.3913 148.005 53.1506 146.818 53.1506 145.455C53.1506 144.091 53.3913 142.906 53.8729 141.901C54.3587 140.891 55.0277 140.111 55.88 139.561C56.7322 139.007 57.7081 138.73 58.8075 138.73C59.9112 138.73 60.8871 139.007 61.7351 139.561C62.5874 140.111 63.2564 140.891 63.7422 141.901C64.228 142.906 64.4709 144.091 64.4709 145.455ZM63.3075 145.455C63.3075 144.283 63.1115 143.279 62.7195 142.444C62.3274 141.604 61.7926 140.963 61.1151 140.52C60.4375 140.077 59.6683 139.855 58.8075 139.855C57.951 139.855 57.1839 140.077 56.5064 140.52C55.8288 140.963 55.2919 141.602 54.8956 142.438C54.5036 143.273 54.3075 144.278 54.3075 145.455C54.3075 146.626 54.5036 147.63 54.8956 148.465C55.2876 149.3 55.8224 149.942 56.5 150.389C57.1776 150.832 57.9467 151.054 58.8075 151.054C59.6683 151.054 60.4375 150.832 61.1151 150.389C61.7969 149.946 62.3338 149.307 62.7259 148.472C63.1179 147.632 63.3118 146.626 63.3075 145.455ZM76.0868 138.909H77.2821V147.577C77.2821 148.467 77.0733 149.264 76.6557 149.967C76.2381 150.666 75.6564 151.218 74.9107 151.623C74.1692 152.023 73.3063 152.224 72.3219 152.224C71.3418 152.224 70.4789 152.021 69.7331 151.616C68.9874 151.212 68.4057 150.66 67.9881 149.961C67.5705 149.262 67.3617 148.467 67.3617 147.577V138.909H68.557V147.494C68.557 148.188 68.7125 148.808 69.0236 149.354C69.3347 149.895 69.7715 150.321 70.334 150.632C70.9007 150.943 71.5634 151.099 72.3219 151.099C73.0804 151.099 73.7431 150.943 74.3098 150.632C74.8766 150.321 75.3134 149.895 75.6202 149.354C75.9313 148.808 76.0868 148.188 76.0868 147.494V138.909ZM81.9515 138.909V152H80.7562V138.909H81.9515ZM95.6848 143H94.4831C94.3936 142.553 94.2317 142.139 93.9973 141.76C93.7672 141.376 93.4775 141.042 93.128 140.756C92.7786 140.471 92.3823 140.249 91.9391 140.092C91.4959 139.934 91.0165 139.855 90.5009 139.855C89.6742 139.855 88.9199 140.07 88.2381 140.501C87.5605 140.931 87.0172 141.564 86.6081 142.399C86.2033 143.23 86.0009 144.249 86.0009 145.455C86.0009 146.669 86.2033 147.692 86.6081 148.523C87.0172 149.354 87.5605 149.984 88.2381 150.415C88.9199 150.841 89.6742 151.054 90.5009 151.054C91.0165 151.054 91.4959 150.975 91.9391 150.817C92.3823 150.66 92.7786 150.44 93.128 150.159C93.4775 149.874 93.7672 149.539 93.9973 149.156C94.2317 148.772 94.3936 148.357 94.4831 147.909H95.6848C95.5783 148.51 95.378 149.07 95.084 149.59C94.7942 150.106 94.4235 150.558 93.9718 150.945C93.5243 151.333 93.0087 151.636 92.4249 151.853C91.8411 152.07 91.1998 152.179 90.5009 152.179C89.4015 152.179 88.4256 151.904 87.5733 151.354C86.7211 150.8 86.052 150.021 85.5662 149.015C85.0847 148.009 84.8439 146.822 84.8439 145.455C84.8439 144.087 85.0847 142.9 85.5662 141.894C86.052 140.888 86.7211 140.111 87.5733 139.561C88.4256 139.007 89.4015 138.73 90.5009 138.73C91.1998 138.73 91.8411 138.839 92.4249 139.056C93.0087 139.269 93.5243 139.572 93.9718 139.964C94.4235 140.352 94.7942 140.803 95.084 141.319C95.378 141.835 95.5783 142.395 95.6848 143ZM98.4925 152V138.909H99.6879V145.96H99.8029L106.195 138.909H107.767L102.174 144.962L107.742 152H106.284L101.433 145.793L99.6879 147.749V152H98.4925ZM58.6413 169.909H59.9709L61.6456 172.127L61.9268 172.498L63.9851 175.227H62.6555L61.147 173.214L60.8786 172.856L58.6413 169.909ZM64.4709 167.455C64.4709 168.818 64.228 170.005 63.7422 171.015C63.2564 172.021 62.5874 172.8 61.7351 173.354C60.8871 173.904 59.9112 174.179 58.8075 174.179C57.7038 174.179 56.7259 173.904 55.8736 173.354C55.0256 172.8 54.3587 172.021 53.8729 171.015C53.3913 170.005 53.1506 168.818 53.1506 167.455C53.1506 166.091 53.3913 164.906 53.8729 163.901C54.3587 162.891 55.0277 162.111 55.88 161.561C56.7322 161.007 57.7081 160.73 58.8075 160.73C59.9112 160.73 60.8871 161.007 61.7351 161.561C62.5874 162.111 63.2564 162.891 63.7422 163.901C64.228 164.906 64.4709 166.091 64.4709 167.455ZM63.3075 167.455C63.3075 166.283 63.1115 165.279 62.7195 164.444C62.3274 163.604 61.7926 162.963 61.1151 162.52C60.4375 162.077 59.6683 161.855 58.8075 161.855C57.951 161.855 57.1839 162.077 56.5064 162.52C55.8288 162.963 55.2919 163.602 54.8956 164.438C54.5036 165.273 54.3075 166.278 54.3075 167.455C54.3075 168.626 54.5036 169.63 54.8956 170.465C55.2876 171.3 55.8224 171.942 56.5 172.389C57.1776 172.832 57.9467 173.054 58.8075 173.054C59.6683 173.054 60.4375 172.832 61.1151 172.389C61.7969 171.946 62.3338 171.307 62.7259 170.472C63.1179 169.632 63.3118 168.626 63.3075 167.455ZM76.0868 160.909H77.2821V169.577C77.2821 170.467 77.0733 171.264 76.6557 171.967C76.2381 172.666 75.6564 173.218 74.9107 173.623C74.1692 174.023 73.3063 174.224 72.3219 174.224C71.3418 174.224 70.4789 174.021 69.7331 173.616C68.9874 173.212 68.4057 172.66 67.9881 171.961C67.5705 171.262 67.3617 170.467 67.3617 169.577V160.909H68.557V169.494C68.557 170.188 68.7125 170.808 69.0236 171.354C69.3347 171.895 69.7715 172.321 70.334 172.632C70.9007 172.943 71.5634 173.099 72.3219 173.099C73.0804 173.099 73.7431 172.943 74.3098 172.632C74.8766 172.321 75.3134 171.895 75.6202 171.354C75.9313 170.808 76.0868 170.188 76.0868 169.494V160.909ZM80.7562 174V160.909H88.35V161.983H81.9515V166.911H87.9473V167.985H81.9515V172.926H88.4778V174H80.7562ZM98.5517 164.182C98.4792 163.453 98.1575 162.874 97.5865 162.443C97.0154 162.013 96.2974 161.798 95.4324 161.798C94.823 161.798 94.286 161.902 93.8216 162.111C93.3613 162.32 92.9991 162.609 92.7349 162.98C92.475 163.347 92.345 163.764 92.345 164.233C92.345 164.578 92.4196 164.881 92.5687 165.141C92.7179 165.401 92.9181 165.624 93.1696 165.812C93.4252 165.995 93.7065 166.153 94.0133 166.285C94.3244 166.417 94.6376 166.528 94.9529 166.617L96.3336 167.013C96.7512 167.129 97.1689 167.276 97.5865 167.455C98.0041 167.634 98.3855 167.859 98.7306 168.132C99.0801 168.401 99.3592 168.731 99.568 169.123C99.7811 169.511 99.8876 169.977 99.8876 170.523C99.8876 171.222 99.7065 171.85 99.3443 172.408C98.9821 172.967 98.4622 173.41 97.7846 173.738C97.1071 174.062 96.2953 174.224 95.3493 174.224C94.4586 174.224 93.6852 174.077 93.0289 173.783C92.3727 173.484 91.8571 173.073 91.4821 172.549C91.1071 172.025 90.8961 171.418 90.8493 170.727H92.0765C92.1191 171.243 92.2896 171.68 92.5879 172.038C92.8862 172.396 93.274 172.668 93.7512 172.856C94.2285 173.039 94.7612 173.131 95.3493 173.131C96.0012 173.131 96.5808 173.022 97.0879 172.805C97.5993 172.583 97.9998 172.276 98.2896 171.884C98.5836 171.488 98.7306 171.028 98.7306 170.504C98.7306 170.06 98.6156 169.69 98.3855 169.391C98.1554 169.089 97.8336 168.835 97.4203 168.631C97.0112 168.426 96.536 168.245 95.9949 168.087L94.4288 167.627C93.4018 167.32 92.6049 166.896 92.0382 166.355C91.4714 165.814 91.188 165.124 91.188 164.284C91.188 163.581 91.3755 162.963 91.7505 162.43C92.1298 161.893 92.6412 161.476 93.2846 161.178C93.9324 160.875 94.6589 160.724 95.4643 160.724C96.2782 160.724 96.9984 160.873 97.6248 161.171C98.2512 161.469 98.7477 161.881 99.1142 162.405C99.4849 162.925 99.6831 163.517 99.7086 164.182H98.5517ZM101.971 161.983V160.909H111.464V161.983H107.315V174H106.12V161.983H101.971ZM115.35 160.909V174H114.155V160.909H115.35ZM129.563 167.455C129.563 168.818 129.32 170.005 128.834 171.015C128.348 172.021 127.679 172.8 126.827 173.354C125.979 173.904 125.003 174.179 123.899 174.179C122.796 174.179 121.818 173.904 120.965 173.354C120.117 172.8 119.45 172.021 118.965 171.015C118.483 170.005 118.242 168.818 118.242 167.455C118.242 166.091 118.483 164.906 118.965 163.901C119.45 162.891 120.119 162.111 120.972 161.561C121.824 161.007 122.8 160.73 123.899 160.73C125.003 160.73 125.979 161.007 126.827 161.561C127.679 162.111 128.348 162.891 128.834 163.901C129.32 164.906 129.563 166.091 129.563 167.455ZM128.399 167.455C128.399 166.283 128.203 165.279 127.811 164.444C127.419 163.604 126.884 162.963 126.207 162.52C125.529 162.077 124.76 161.855 123.899 161.855C123.043 161.855 122.276 162.077 121.598 162.52C120.921 162.963 120.384 163.602 119.987 164.438C119.595 165.273 119.399 166.278 119.399 167.455C119.399 168.626 119.595 169.63 119.987 170.465C120.379 171.3 120.914 171.942 121.592 172.389C122.269 172.832 123.039 173.054 123.899 173.054C124.76 173.054 125.529 172.832 126.207 172.389C126.889 171.946 127.426 171.307 127.818 170.472C128.21 169.632 128.404 168.626 128.399 167.455ZM142.649 160.909V174H141.485L133.751 163.038H133.649V174H132.453V160.909H133.61L141.37 171.884H141.473V160.909H142.649ZM153.237 164.182C153.165 163.453 152.843 162.874 152.272 162.443C151.701 162.013 150.983 161.798 150.118 161.798C149.509 161.798 148.972 161.902 148.507 162.111C148.047 162.32 147.685 162.609 147.42 162.98C147.161 163.347 147.031 163.764 147.031 164.233C147.031 164.578 147.105 164.881 147.254 165.141C147.403 165.401 147.604 165.624 147.855 165.812C148.111 165.995 148.392 166.153 148.699 166.285C149.01 166.417 149.323 166.528 149.638 166.617L151.019 167.013C151.437 167.129 151.854 167.276 152.272 167.455C152.69 167.634 153.071 167.859 153.416 168.132C153.766 168.401 154.045 168.731 154.254 169.123C154.467 169.511 154.573 169.977 154.573 170.523C154.573 171.222 154.392 171.85 154.03 172.408C153.668 172.967 153.148 173.41 152.47 173.738C151.793 174.062 150.981 174.224 150.035 174.224C149.144 174.224 148.371 174.077 147.714 173.783C147.058 173.484 146.543 173.073 146.168 172.549C145.793 172.025 145.582 171.418 145.535 170.727H146.762C146.805 171.243 146.975 171.68 147.273 172.038C147.572 172.396 147.96 172.668 148.437 172.856C148.914 173.039 149.447 173.131 150.035 173.131C150.687 173.131 151.266 173.022 151.773 172.805C152.285 172.583 152.685 172.276 152.975 171.884C153.269 171.488 153.416 171.028 153.416 170.504C153.416 170.06 153.301 169.69 153.071 169.391C152.841 169.089 152.519 168.835 152.106 168.631C151.697 168.426 151.222 168.245 150.68 168.087L149.114 167.627C148.087 167.32 147.29 166.896 146.724 166.355C146.157 165.814 145.874 165.124 145.874 164.284C145.874 163.581 146.061 162.963 146.436 162.43C146.815 161.893 147.327 161.476 147.97 161.178C148.618 160.875 149.344 160.724 150.15 160.724C150.964 160.724 151.684 160.873 152.31 161.171C152.937 161.469 153.433 161.881 153.8 162.405C154.17 162.925 154.369 163.517 154.394 164.182H153.237ZM158.811 160.909L158.728 170.248H157.603L157.52 160.909H158.811ZM158.165 174.096C157.914 174.096 157.697 174.006 157.513 173.827C157.335 173.644 157.245 173.427 157.245 173.175C157.245 172.92 157.335 172.702 157.513 172.523C157.697 172.344 157.914 172.255 158.165 172.255C158.417 172.255 158.632 172.344 158.811 172.523C158.994 172.702 159.086 172.92 159.086 173.175C159.086 173.342 159.043 173.495 158.958 173.636C158.877 173.776 158.766 173.889 158.626 173.974C158.489 174.055 158.336 174.096 158.165 174.096Z" fill="#FAFAFF"/>
</g>
<defs>
<clipPath id="clip0_315_827">
<rect width="198" height="198" rx="4" fill="white"/>
</clipPath>
</defs>
</svg>
