<svg width="80" height="80" viewBox="0 0 80 80" fill="none" xmlns="http://www.w3.org/2000/svg">
<path d="M39.9922 0H0V80H39.9922C50.6029 80 60.779 75.7857 68.282 68.2843C75.7849 60.7828 80 50.6087 80 40C80 29.3913 75.7849 19.2172 68.282 11.7157C60.779 4.21427 50.6029 0 39.9922 0ZM3.37321 39.702L19.1567 23.9216V58.4314L3.37321 74.1961V39.702ZM5.77368 76.5961L21.5415 60.8157H39.9922C41.4201 60.8186 42.8447 60.6767 44.244 60.3922L28.0369 76.5961H5.77368ZM22.5299 22.5255H39.9922C43.3857 22.5107 46.71 23.4858 49.5577 25.3313C52.4054 27.1768 54.6529 29.8126 56.025 32.9159C57.3971 36.0192 57.8342 39.4552 57.2827 42.803C56.7313 46.1509 55.2152 49.2653 52.9202 51.7647C52.5414 52.1905 52.138 52.5938 51.7121 52.9726C48.5092 55.8946 44.3281 57.5118 39.9922 57.5059H22.5299V22.5255ZM39.9922 76.5961H32.8064L54.2067 55.2L55.2108 54.1961L55.352 54.0549C58.0827 51.0743 59.8872 47.3639 60.5453 43.3758C61.2035 39.3878 60.6871 35.2944 59.0589 31.5947C57.4307 27.895 54.7611 24.7488 51.3756 22.5397C47.9901 20.3305 44.0349 19.1538 39.9922 19.1529H19.1567L3.37321 34.9176V3.37255H39.9922C49.7041 3.37255 59.0183 7.22985 65.8857 14.0959C72.753 20.9619 76.6111 30.2743 76.6111 39.9843C76.6111 49.6944 72.753 59.0067 65.8857 65.8727C59.0183 72.7388 49.7041 76.5961 39.9922 76.5961Z" fill="#ECF5FF"/>
</svg>
