<svg width="67" height="80" viewBox="0 0 67 80" fill="none" xmlns="http://www.w3.org/2000/svg">
<path d="M42.0567 24.2918V1.95849e-05H28.0426C20.9554 -0.00835645 14.1285 2.67023 8.93796 7.49588C3.74743 12.3215 0.579217 18.9354 0.0718995 26.0044C-0.435418 33.0734 1.75589 40.072 6.20413 45.5894C10.6524 51.1067 17.0268 54.7327 24.0426 55.7365V80H38.0473C45.1263 79.9941 51.9407 77.3088 57.1208 72.4838C62.3009 67.6589 65.4626 61.052 65.9704 53.9912C66.4783 46.9304 64.2946 39.939 59.8583 34.4225C55.422 28.9059 49.062 25.2731 42.0567 24.2541V24.2918ZM4.03315 28.0565C4.02696 24.8996 4.64342 21.7724 5.84723 18.854C7.05105 15.9356 8.81859 13.2833 11.0487 11.0488C13.2788 8.81437 15.9276 7.04164 18.8437 5.83212C21.7597 4.62259 24.8856 4.00001 28.0426 4.00002H38.0473V14.0047H28.0426C24.3899 14.0994 20.9186 15.6169 18.3687 18.2339C15.8187 20.8508 14.3916 24.3602 14.3916 28.0141C14.3916 31.668 15.8187 35.1774 18.3687 37.7944C20.9186 40.4113 24.3899 41.9289 28.0426 42.0235H38.0473C40.7007 42.0235 43.2454 43.0776 45.1217 44.9538C46.9979 46.8301 48.052 49.3748 48.052 52.0282C48.052 54.6817 46.9979 57.2264 45.1217 59.1026C43.2454 60.9789 40.7007 62.033 38.0473 62.033H28.0426V52.0282C21.674 52.0257 15.5671 49.4941 11.0648 44.99C6.5624 40.4858 4.03315 34.378 4.03315 28.0094V28.0565ZM38.0473 76.0565H28.0426V66.033H38.0473C39.9176 66.0814 41.7786 65.7549 43.5207 65.0727C45.2628 64.3904 46.8507 63.3663 48.1906 62.0606C49.5306 60.7549 50.5956 59.1941 51.3227 57.4703C52.0499 55.7464 52.4245 53.8945 52.4245 52.0235C52.4245 50.1526 52.0499 48.3006 51.3227 46.5768C50.5956 44.853 49.5306 43.2922 48.1906 41.9865C46.8507 40.6808 45.2628 39.6566 43.5207 38.9744C41.7786 38.2922 39.9176 37.9656 38.0473 38.0141H28.0426C25.3891 38.0141 22.8444 36.9601 20.9682 35.0838C19.0919 33.2076 18.0378 30.6628 18.0378 28.0094C18.0378 25.356 19.0919 22.8113 20.9682 20.935C22.8444 19.0588 25.3891 18.0047 28.0426 18.0047H38.0473V28.0094C41.279 27.8814 44.5032 28.4074 47.5267 29.5558C50.5502 30.7042 53.3106 32.4514 55.6423 34.6927C57.9741 36.9339 59.8292 39.623 61.0964 42.5986C62.3636 45.5743 63.0168 48.7752 63.0168 52.0094C63.0168 55.2436 62.3636 58.4446 61.0964 61.4202C59.8292 64.3959 57.9741 67.0849 55.6423 69.3262C53.3106 71.5674 50.5502 73.3146 47.5267 74.463C44.5032 75.6115 41.279 76.1374 38.0473 76.0094V76.0565Z" fill="#ECF5FF"/>
</svg>
