<svg width="337" height="40" viewBox="0 0 337 40" fill="none" xmlns="http://www.w3.org/2000/svg">
<path d="M0 38.0106L9.8086 28.202V12.2695L0 22.0781V38.0106Z" fill="#EBEDFA"/>
<path d="M11.4175 39.2387L21.3818 29.2744C20.8109 29.3782 20.2054 29.4301 19.5999 29.4301H11.0196L1.22827 39.2387H11.4348H11.4175Z" fill="#EBEDFA"/>
<path d="M19.6172 0.00402832H0V19.6212L9.8086 9.81263H19.6172C25.0318 9.81263 29.4258 14.2066 29.4258 19.6212C29.4258 22.3545 28.3187 24.811 26.5196 26.5928L13.8739 39.2384H19.6172C30.4465 39.2384 39.2344 30.4505 39.2344 19.6212C39.2344 8.79198 30.4465 0.00402832 19.6172 0.00402832Z" fill="#EBEDFA"/>
<path d="M42.625 8.15221C40.7913 6.19741 40.7913 3.23926 42.625 1.38825C44.5625 -0.462752 47.5034 -0.462752 49.3371 1.38825C51.2746 3.23926 51.2746 6.19741 49.3371 8.15221C47.5034 10.0032 44.5625 10.0032 42.625 8.15221Z" fill="#EBEDFA"/>
<path d="M50.4789 12.3041H41.5353V39.2388H50.4789V12.3041Z" fill="#EBEDFA"/>
<path d="M94.8335 22.7528V39.2389H85.838V23.7734C85.838 21.2478 84.7135 20.0022 82.4993 20.0022C80.0774 20.0022 78.78 21.7322 78.78 24.5346V39.2389H69.8363V23.7734C69.8363 21.2478 68.7119 20.0022 66.4457 20.0022C64.0238 20.0022 62.7264 21.7322 62.7264 24.5346V39.2389H53.7827V12.3041H62.7264V14.8298C64.4044 12.6155 66.8263 11.543 69.992 11.543C73.1577 11.543 75.372 12.6674 76.8943 14.9855C78.78 12.6674 81.3575 11.543 84.7136 11.543C90.9585 11.543 94.8335 15.7986 94.8335 22.7528Z" fill="#EBEDFA"/>
<path d="M105.836 29.0497C106.753 31.264 108.742 32.3365 111.873 32.3365C113.811 32.3365 115.437 31.6964 116.769 30.4509L123.239 34.9833C120.592 38.322 116.717 40 111.649 40C107.064 40 103.397 38.6507 100.664 36.0212C97.9131 33.3226 96.5637 29.9319 96.5637 25.832C96.5637 21.7322 97.9131 18.3934 100.612 15.6429C103.31 12.8923 106.753 11.543 110.905 11.543C115.056 11.543 118.24 12.8923 120.869 15.591C123.516 18.2896 124.796 21.6803 124.796 25.711C124.796 26.9046 124.692 28.029 124.415 29.0497H105.836ZM116.077 22.8566C115.368 20.3309 113.655 19.0854 111.008 19.0854C108.362 19.0854 106.476 20.3309 105.732 22.8566H116.077Z" fill="#EBEDFA"/>
<path d="M153.132 23.1332V39.2387H144.188V24.2576C144.188 21.4552 142.58 20.002 140.14 20.002C137.338 20.002 135.729 21.7319 135.729 24.8977V39.2214H126.786V12.3039H135.729V15.0026C137.338 12.6845 139.829 11.5601 143.22 11.5601C149.032 11.5601 153.132 15.66 153.132 23.1505V23.1332Z" fill="#EBEDFA"/>
<path d="M169.254 22.3203C173.078 23.0296 177.991 24.9671 177.921 30.9353C177.921 34.0145 176.797 36.3153 174.479 37.7857C172.161 39.2389 169.462 40 166.296 40C160.259 40 156.228 37.8376 154.222 33.5821L162.041 29.6551C162.733 31.6446 164.134 32.6133 166.244 32.6133C167.853 32.6133 168.666 32.1289 168.666 31.1602C168.666 30.1395 166.625 29.6033 164.03 28.9459C160.311 28.1328 155.467 26.1434 155.519 20.5904C155.519 17.7361 156.592 15.4699 158.702 13.9129C160.795 12.356 163.39 11.543 166.348 11.543C171.676 11.543 175.344 13.6362 177.454 17.788L169.912 21.1786C169.099 19.6217 168.026 18.8605 166.573 18.8605C165.224 18.8605 164.584 19.293 164.584 20.1579C164.584 21.1786 166.677 21.7149 169.272 22.3203H169.254Z" fill="#EBEDFA"/>
<path d="M180.534 8.77502C178.544 6.68182 178.544 3.49878 180.534 1.50938C182.627 -0.480016 185.81 -0.480016 187.799 1.50938C189.892 3.49878 189.892 6.68182 187.799 8.77502C185.81 10.7644 182.627 10.7644 180.534 8.77502Z" fill="#EBEDFA"/>
<path d="M188.664 12.3041H179.721V39.2388H188.664V12.3041Z" fill="#EBEDFA"/>
<path d="M194.563 35.8999C191.761 33.1494 190.36 29.7587 190.36 25.7799C190.36 21.8011 191.761 18.4451 194.563 15.7118C197.366 12.9613 200.757 11.5601 204.753 11.5601C208.749 11.5601 212.191 12.9613 214.942 15.7118C217.744 18.4624 219.145 21.8011 219.145 25.7799C219.145 29.7587 217.744 33.1667 214.942 35.8999C212.191 38.6505 208.801 39.9998 204.753 39.9998C200.705 39.9998 197.366 38.6505 194.563 35.8999ZM210.185 25.7799C210.185 22.4931 207.918 20.175 204.735 20.175C201.552 20.175 199.355 22.4931 199.355 25.7799C199.355 29.0668 201.673 31.3849 204.735 31.3849C207.797 31.3849 210.185 29.0668 210.185 25.7799Z" fill="#EBEDFA"/>
<path d="M247.412 23.1332V39.2387H238.468V24.2576C238.468 21.4552 236.86 20.002 234.42 20.002C231.618 20.002 230.009 21.7319 230.009 24.8977V39.2214H221.065V12.3039H230.009V15.0026C231.618 12.6845 234.109 11.5601 237.5 11.5601C243.312 11.5601 247.412 15.66 247.412 23.1505V23.1332Z" fill="#EBEDFA"/>
<path d="M260.836 29.9145H273.828V39.2387H251.201V0.00427246H260.836V29.9145Z" fill="#EBEDFA"/>
<path d="M295.192 12.3041H304.136V39.2389H295.192V36.7651C293.359 38.9275 290.833 40 287.546 40C283.931 40 280.92 38.6507 278.499 35.952C276.077 33.2015 274.883 29.8108 274.883 25.7628C274.883 21.7149 276.077 18.3242 278.499 15.6429C280.92 12.8923 283.948 11.543 287.546 11.543C290.833 11.543 293.359 12.6155 295.192 14.7779V12.3041ZM289.535 31.6446C291.213 31.6446 292.597 31.1083 293.635 30.0357C294.656 28.9632 295.192 27.562 295.192 25.7801C295.192 23.9983 294.656 22.5971 293.635 21.5246C292.615 20.452 291.213 19.9157 289.535 19.9157C287.857 19.9157 286.456 20.452 285.436 21.5246C284.415 22.5971 283.879 23.9983 283.879 25.7801C283.879 27.562 284.415 28.9632 285.436 30.0357C286.456 31.1083 287.857 31.6446 289.535 31.6446Z" fill="#EBEDFA"/>
<path d="M333.112 15.6427C335.534 18.3413 336.779 21.732 336.779 25.7627C336.779 29.7934 335.534 33.2013 333.112 35.9519C330.69 38.6505 327.732 39.9998 324.116 39.9998C320.83 39.9998 318.304 38.9273 316.47 36.7649V39.2387H307.527V0.00427246H316.47V14.7777C318.304 12.6153 320.83 11.5428 324.116 11.5428C327.732 11.5428 330.69 12.8921 333.112 15.6427ZM322.127 31.6444C323.805 31.6444 325.206 31.1081 326.227 30.0356C327.248 28.963 327.784 27.5618 327.784 25.78C327.784 23.9982 327.248 22.5969 326.227 21.5244C325.206 20.4518 323.805 19.9156 322.127 19.9156C320.449 19.9156 319.048 20.4518 318.027 21.5244C317.007 22.5969 316.47 23.9982 316.47 25.78C316.47 27.5618 317.007 28.963 318.027 30.0356C319.048 31.1081 320.449 31.6444 322.127 31.6444Z" fill="#EBEDFA"/>
</svg>
