<svg width="21" height="21" viewBox="0 0 21 21" fill="none" xmlns="http://www.w3.org/2000/svg">
<path d="M0 19.3786L5.00106 14.3775V6.24841L0 11.2495V19.3786Z" fill="#ECF5FF"/>
<path d="M5.82479 20.0043L10.9098 14.9193C10.6103 14.9744 10.3064 15.0025 10.0019 15.0032H5.62643L0.625366 20.0043H5.82479Z" fill="#ECF5FF"/>
<path d="M10.0021 0H0V10.0021L5.00106 5.00106H10.0021C10.9935 5.00107 11.9626 5.29574 12.7862 5.84765C13.6097 6.39956 14.2507 7.18381 14.6276 8.10077C15.0045 9.01773 15.1004 10.026 14.9031 10.9976C14.7057 11.9692 14.2241 12.8602 13.5193 13.5574L7.07244 20.0042H10.0021C12.6548 20.0042 15.1989 18.9505 17.0747 17.0747C18.9505 15.1989 20.0042 12.6548 20.0042 10.0021C20.0042 7.34939 18.9505 4.80532 17.0747 2.92955C15.1989 1.05379 12.6548 0 10.0021 0Z" fill="#ECF5FF"/>
</svg>
