<svg width="191" height="48" viewBox="0 0 191 48" fill="none" xmlns="http://www.w3.org/2000/svg">
<path d="M51.8933 14.8267H39.9865V47.0061H51.8933V14.8267Z" fill="#EBEDFA"/>
<path d="M105.878 27.4373V47.0059H93.9708V29.0525C93.9708 26.609 92.8733 25.3872 90.699 25.3872C88.1934 25.3872 86.9096 27.0024 86.9096 30.15V47.0059H75.0027V29.0525C75.0027 26.609 73.9052 25.3872 71.731 25.3872C69.2253 25.3872 67.9415 27.0024 67.9415 30.15V47.0059H56.0347V14.8264H67.9415V17.8497C70.0744 15.2199 72.9527 13.9153 76.7008 13.9153C80.4488 13.9153 83.0787 15.2613 84.7353 17.9118C87.0545 15.282 90.1399 13.9153 93.9915 13.9153C101.446 13.9153 105.898 18.7401 105.898 27.4373H105.878Z" fill="#EBEDFA"/>
<path d="M121.884 0.020752H109.978V46.9854H121.884V0.020752Z" fill="#EBEDFA"/>
<path d="M41.5392 10.5193C39.1578 8.0137 39.1578 4.20352 41.5392 1.82216C44.0448 -0.559208 47.855 -0.559208 50.2364 1.82216C52.742 4.20352 52.742 8.0137 50.2364 10.5193C47.855 12.9007 44.0448 12.9007 41.5392 10.5193Z" fill="#EBEDFA"/>
<path d="M161.746 14.8267V17.7258C159.696 15.2201 156.797 13.9363 153.132 13.9363C148.825 13.9363 145.284 15.5515 142.509 18.7611C139.734 21.9708 138.388 26.0295 138.388 30.9164C138.388 35.8034 139.734 39.8621 142.509 43.0717C145.284 46.2814 148.825 47.8966 153.132 47.8966C156.797 47.8966 159.696 46.6127 161.746 44.1071V47.0062H173.653V14.8267H161.746ZM160.131 35.2236C159.096 36.3832 157.75 36.963 156.01 36.963C154.271 36.963 152.925 36.3832 151.827 35.2236C149.777 32.9044 149.777 28.9078 151.827 26.6093C152.925 25.4497 154.271 24.8698 156.01 24.8698C157.75 24.8698 159.096 25.4497 160.131 26.6093C162.264 28.9285 162.264 32.9251 160.131 35.2236Z" fill="#EBEDFA"/>
<path d="M189.909 14.8267H178.002V47.0061H189.909V14.8267Z" fill="#EBEDFA"/>
<path d="M179.555 10.5193C177.173 8.0137 177.173 4.20352 179.555 1.82216C182.06 -0.559208 185.871 -0.559208 188.252 1.82216C190.758 4.20352 190.758 8.0137 188.252 10.5193C185.871 12.9007 182.06 12.9007 179.555 10.5193Z" fill="#EBEDFA"/>
<path d="M126.606 45.2044C124.224 42.6988 124.224 38.8886 126.606 36.5072C129.111 34.1259 132.921 34.1259 135.303 36.5072C137.808 38.8886 137.808 42.6988 135.303 45.2044C132.921 47.5857 129.111 47.5857 126.606 45.2044Z" fill="#EBEDFA"/>
<path d="M0 36.4866L11.2235 29.9845C12.7351 33.8568 15.4892 35.824 19.4858 35.824C22.4469 35.824 23.9379 35.0371 23.9379 33.4633C23.9379 32.6143 23.6066 31.8896 22.3641 31.3719C21.7636 31.1027 21.1838 30.9163 20.7282 30.7921C20.2726 30.6057 19.4858 30.3986 18.3676 30.0673L15.8205 29.3425C6.70923 26.5884 2.11217 21.6601 2.11217 14.5781C2.11217 10.3745 3.62381 6.8956 6.64711 4.1415C9.73253 1.3874 13.7291 0 18.6575 0C26.4642 0 33.0285 3.81018 35.9068 10.6851L25.0147 17.0423C23.7722 13.8326 21.6808 12.1967 18.7196 12.1967C16.4211 12.1967 15.2407 13.2528 15.2407 14.6195C15.2407 15.6135 15.7584 16.3175 16.7524 16.8559C17.8085 17.3736 19.7757 18.0362 22.7161 18.8852C27.1061 20.1898 29.4047 21.1217 32.4901 23.2752C35.5755 25.3667 37.0871 28.7834 37.0871 33.3184C37.0871 42.6989 30.1915 48 19.1752 48C9.21484 48 2.31924 43.5479 0.0207075 36.4659L0 36.4866Z" fill="#EBEDFA"/>
</svg>
