<svg xmlns="http://www.w3.org/2000/svg" viewBox="0 0 380.09 348.78"><defs><style>.a{fill:#231f20;}.a,.b,.c{fill-rule:evenodd;}.b{fill:#a7a9ac;}.c{fill:#2a5caa;}</style></defs><title>logo</title><path class="a" d="M116.21,589.26v.51h-8.12v-.51h.67a2,2,0,0,0,1.71-.68,4.26,4.26,0,0,0,.33-2.15V574.16a6.31,6.31,0,0,0-.18-1.9,1.26,1.26,0,0,0-.58-.6,2.64,2.64,0,0,0-1.29-.33h-.67v-.51h8.12v.51h-.68a2,2,0,0,0-1.69.68,4.1,4.1,0,0,0-.35,2.15v12.26a6.31,6.31,0,0,0,.18,1.9,1.22,1.22,0,0,0,.59.6,2.55,2.55,0,0,0,1.27.33Z" transform="translate(-108.09 -247.16)"/><path class="a" d="M129.11,579.27q2.24-2.68,4.27-2.68a3.07,3.07,0,0,1,1.8.52,3.5,3.5,0,0,1,1.2,1.72,8,8,0,0,1,.31,2.57v5.47a4.61,4.61,0,0,0,.2,1.64,1.14,1.14,0,0,0,.49.54,2.82,2.82,0,0,0,1.26.2v.51h-6.32v-.51h.27a2.12,2.12,0,0,0,1.24-.27,1.43,1.43,0,0,0,.49-.8,7.89,7.89,0,0,0,.06-1.31v-5.27a5.41,5.41,0,0,0-.45-2.55,1.6,1.6,0,0,0-1.52-.79,4.56,4.56,0,0,0-3.29,1.82v6.79a4.84,4.84,0,0,0,.15,1.6,1.34,1.34,0,0,0,.54.59,3.38,3.38,0,0,0,1.39.19v.51h-6.35v-.51h.28a1.51,1.51,0,0,0,1.32-.49,3.58,3.58,0,0,0,.34-1.88v-4.75a20.27,20.27,0,0,0-.1-2.8,1.21,1.21,0,0,0-.32-.69.88.88,0,0,0-.58-.18,2.7,2.7,0,0,0-.93.21l-.21-.51,3.86-1.57h.6Z" transform="translate(-108.09 -247.16)"/><path class="a" d="M155.5,576.59v4.35H155a5.62,5.62,0,0,0-1.36-2.78,3,3,0,0,0-2.11-.74,2.33,2.33,0,0,0-1.57.51,1.5,1.5,0,0,0-.6,1.14,2.11,2.11,0,0,0,.44,1.34,5,5,0,0,0,1.75,1.22l2,1q2.83,1.39,2.83,3.65a3.43,3.43,0,0,1-1.32,2.81,4.58,4.58,0,0,1-2.95,1.07,10.39,10.39,0,0,1-2.68-.41,2.81,2.81,0,0,0-.76-.13.55.55,0,0,0-.5.34h-.46v-4.57h.46a5.21,5.21,0,0,0,1.5,3,3.6,3.6,0,0,0,2.47,1,2.21,2.21,0,0,0,1.57-.56,1.8,1.8,0,0,0,.61-1.36,2.16,2.16,0,0,0-.68-1.62,11.74,11.74,0,0,0-2.71-1.65,7.91,7.91,0,0,1-2.65-1.81,3.17,3.17,0,0,1-.62-2,3.57,3.57,0,0,1,1.08-2.64,3.8,3.8,0,0,1,2.79-1.06,6.45,6.45,0,0,1,1.83.33,4.17,4.17,0,0,0,.94.21.56.56,0,0,0,.35-.1,1.39,1.39,0,0,0,.29-.44Z" transform="translate(-108.09 -247.16)"/><path class="a" d="M165,578.22l3.93-1.57h.53v3a7.24,7.24,0,0,1,2-2.35,3.71,3.71,0,0,1,2.11-.67,4.05,4.05,0,0,1,3.22,1.51,7.12,7.12,0,0,1,1.58,4.8,8,8,0,0,1-1.9,5.47,5,5,0,0,1-3.94,1.77,5,5,0,0,1-1.79-.29,4.16,4.16,0,0,1-1.26-.83v3.9a5.14,5.14,0,0,0,.16,1.68,1.21,1.21,0,0,0,.56.57,3.45,3.45,0,0,0,1.45.21v.51h-6.72v-.51h.35a2.54,2.54,0,0,0,1.32-.29,1,1,0,0,0,.41-.5,5.78,5.78,0,0,0,.15-1.73V580.71a6.62,6.62,0,0,0-.11-1.56,1,1,0,0,0-.36-.5,1.16,1.16,0,0,0-.66-.17,2.57,2.57,0,0,0-.85.2l-.17-.46Zm4.46,2.22v4.78a10.52,10.52,0,0,0,.12,2,2.64,2.64,0,0,0,1,1.43,3,3,0,0,0,1.92.61,2.74,2.74,0,0,0,2.26-1.09,6.31,6.31,0,0,0,1.13-4,7,7,0,0,0-1.29-4.52,2.67,2.67,0,0,0-2.13-1.09,2.89,2.89,0,0,0-1.33.33A7.86,7.86,0,0,0,169.48,580.44Z" transform="translate(-108.09 -247.16)"/><path class="a" d="M191.09,569.9a1.4,1.4,0,0,1,1.41,1.41,1.39,1.39,0,0,1-.41,1,1.35,1.35,0,0,1-1,.42,1.42,1.42,0,0,1-1-2.42,1.4,1.4,0,0,1,1-.41Zm1.15,6.69v10.29a4.55,4.55,0,0,0,.18,1.59,1.19,1.19,0,0,0,.51.59,2.81,2.81,0,0,0,1.25.2v.51H188v-.51a2.88,2.88,0,0,0,1.25-.18,1.25,1.25,0,0,0,.51-.6,4.52,4.52,0,0,0,.19-1.6v-4.95a17.7,17.7,0,0,0-.12-2.68,1.06,1.06,0,0,0-.31-.61.84.84,0,0,0-.57-.18,2.81,2.81,0,0,0-.95.21l-.2-.51,3.85-1.57Z" transform="translate(-108.09 -247.16)"/><path class="a" d="M207.1,576.59v2.89q1.59-2.89,3.27-2.89a1.76,1.76,0,0,1,1.26.47,1.44,1.44,0,0,1,.5,1.08,1.3,1.3,0,0,1-.36.93,1.15,1.15,0,0,1-.86.38,1.81,1.81,0,0,1-1.09-.49,1.81,1.81,0,0,0-.9-.49.83.83,0,0,0-.54.28,6.74,6.74,0,0,0-1.29,1.89v6.12a3.84,3.84,0,0,0,.27,1.62,1.4,1.4,0,0,0,.64.62,2.84,2.84,0,0,0,1.32.25v.51h-6.55v-.51a2.69,2.69,0,0,0,1.44-.3,1.18,1.18,0,0,0,.49-.71,7,7,0,0,0,.07-1.35v-4.95a20.32,20.32,0,0,0-.09-2.65,1.05,1.05,0,0,0-.33-.62,1,1,0,0,0-.61-.2,2.78,2.78,0,0,0-1,.21l-.14-.51,3.87-1.57Z" transform="translate(-108.09 -247.16)"/><path class="a" d="M223.7,569.9a1.4,1.4,0,0,1,1.41,1.41,1.39,1.39,0,0,1-.41,1,1.35,1.35,0,0,1-1,.42,1.43,1.43,0,0,1-1.42-1.42,1.38,1.38,0,0,1,.41-1,1.4,1.4,0,0,1,1-.41Zm1.15,6.69v10.29a4.55,4.55,0,0,0,.18,1.59,1.19,1.19,0,0,0,.51.59,2.81,2.81,0,0,0,1.25.2v.51h-6.2v-.51a2.88,2.88,0,0,0,1.25-.18,1.25,1.25,0,0,0,.51-.6,4.52,4.52,0,0,0,.19-1.6v-4.95a17.71,17.71,0,0,0-.12-2.68,1.06,1.06,0,0,0-.31-.61.84.84,0,0,0-.57-.18,2.81,2.81,0,0,0-.95.21l-.2-.51,3.85-1.57Z" transform="translate(-108.09 -247.16)"/><path class="a" d="M239.69,579.27q2.24-2.68,4.27-2.68a3.07,3.07,0,0,1,1.8.52,3.5,3.5,0,0,1,1.2,1.72,8,8,0,0,1,.31,2.57v5.47a4.61,4.61,0,0,0,.2,1.64,1.14,1.14,0,0,0,.49.54,2.82,2.82,0,0,0,1.26.2v.51h-6.32v-.51h.27a2.12,2.12,0,0,0,1.24-.27,1.43,1.43,0,0,0,.49-.8,7.89,7.89,0,0,0,.06-1.31v-5.27a5.41,5.41,0,0,0-.45-2.55,1.6,1.6,0,0,0-1.52-.79,4.56,4.56,0,0,0-3.29,1.82v6.79a4.84,4.84,0,0,0,.15,1.6,1.34,1.34,0,0,0,.54.59,3.38,3.38,0,0,0,1.39.19v.51h-6.35v-.51h.28a1.51,1.51,0,0,0,1.32-.49,3.58,3.58,0,0,0,.34-1.88v-4.75a20.27,20.27,0,0,0-.1-2.8,1.21,1.21,0,0,0-.32-.69.88.88,0,0,0-.58-.18,2.7,2.7,0,0,0-.93.21l-.21-.51,3.86-1.57h.6Z" transform="translate(-108.09 -247.16)"/><path class="a" d="M261.23,585.08a4.22,4.22,0,0,1-1.8-1.6,4.27,4.27,0,0,1-.62-2.26,4.35,4.35,0,0,1,1.43-3.26,5.06,5.06,0,0,1,3.65-1.37,5.58,5.58,0,0,1,3.16.89h2.7a3.52,3.52,0,0,1,.7,0,.22.22,0,0,1,.14.12.85.85,0,0,1,.09.45,1.24,1.24,0,0,1-.07.51.29.29,0,0,1-.14.11,3,3,0,0,1-.7,0h-1.66a4.31,4.31,0,0,1-.58,5.62,5.18,5.18,0,0,1-3.66,1.27,7.14,7.14,0,0,1-1.93-.28,3.87,3.87,0,0,0-.83.93,1.5,1.5,0,0,0-.21.68.64.64,0,0,0,.23.46,1.69,1.69,0,0,0,.9.32c.26,0,.91.08,2,.1a36.25,36.25,0,0,1,3.73.21,3.49,3.49,0,0,1,2.07,1,2.63,2.63,0,0,1,.78,1.93,4,4,0,0,1-1.48,3,8,8,0,0,1-5.68,2,8.11,8.11,0,0,1-4.55-1.21c-.7-.47-1-1-1-1.45a1.64,1.64,0,0,1,.15-.67,7.93,7.93,0,0,1,1-1.44c.07-.09.54-.59,1.42-1.51a4.39,4.39,0,0,1-1-.78,1.16,1.16,0,0,1-.3-.78,2.36,2.36,0,0,1,.4-1.15,9.17,9.17,0,0,1,1.82-1.87Zm2.43-7.8a2.17,2.17,0,0,0-1.72.82,3.84,3.84,0,0,0-.7,2.52,5.39,5.39,0,0,0,.95,3.41,2.23,2.23,0,0,0,1.83.92,2.19,2.19,0,0,0,1.74-.79,3.78,3.78,0,0,0,.68-2.49,5.57,5.57,0,0,0-1-3.46,2.21,2.21,0,0,0-1.82-.92Zm-2.56,12.49a6.53,6.53,0,0,0-1,1.32,2.38,2.38,0,0,0-.33,1.13,1.43,1.43,0,0,0,.81,1.17,7.67,7.67,0,0,0,4,.86,6.21,6.21,0,0,0,3.7-.89,2.43,2.43,0,0,0,1.19-1.89,1.06,1.06,0,0,0-.71-1,9.33,9.33,0,0,0-2.87-.36A48.11,48.11,0,0,1,261.1,589.77Z" transform="translate(-108.09 -247.16)"/><path class="a" d="M301.41,571.85v7.49h4.17a3.4,3.4,0,0,0,2.16-.49,3.14,3.14,0,0,0,.81-2.26h.51v6.6h-.51a7.32,7.32,0,0,0-.39-1.78,1.76,1.76,0,0,0-.82-.77,4.2,4.2,0,0,0-1.76-.28h-4.17v6.25a6,6,0,0,0,.11,1.53.88.88,0,0,0,.39.43,2.35,2.35,0,0,0,1.06.16h3.21a8.76,8.76,0,0,0,2.33-.22,3.44,3.44,0,0,0,1.39-.88,10.77,10.77,0,0,0,1.77-2.61h.57l-1.63,4.75H296v-.51h.67a2.66,2.66,0,0,0,1.27-.32,1.16,1.16,0,0,0,.61-.67,6.49,6.49,0,0,0,.16-1.83V574.11a4,4,0,0,0-.36-2.22,2.18,2.18,0,0,0-1.68-.56H296v-.51h14.61l.2,4.17h-.54a6.64,6.64,0,0,0-.65-2.07,2.27,2.27,0,0,0-1.05-.86,6.36,6.36,0,0,0-2-.21Z" transform="translate(-108.09 -247.16)"/><path class="a" d="M320.85,577h6v.51a1.23,1.23,0,0,0-.8.2.66.66,0,0,0-.23.52,2.18,2.18,0,0,0,.51,1l.47.7.92,1.46,1.05-1.46a5,5,0,0,0,1-1.74.67.67,0,0,0-.24-.51,1.15,1.15,0,0,0-.77-.21V577h4.29v.51a2.38,2.38,0,0,0-1.2.38,9.56,9.56,0,0,0-1.87,2.06l-1.75,2.33,3.18,4.62a9.25,9.25,0,0,0,1.68,2,2.49,2.49,0,0,0,1.3.39v.49h-6v-.49a1.52,1.52,0,0,0,1-.28.62.62,0,0,0,.27-.52,4.9,4.9,0,0,0-.9-1.63l-1.87-2.73-2.05,2.73a5.37,5.37,0,0,0-.92,1.52.8.8,0,0,0,.31.61,1.49,1.49,0,0,0,.94.3v.49h-4.17v-.49a1.86,1.86,0,0,0,.88-.35,12.37,12.37,0,0,0,1.78-2.07l2.66-3.58-2.41-3.52a8,8,0,0,0-1.59-1.9,2.44,2.44,0,0,0-1.41-.39Z" transform="translate(-108.09 -247.16)"/><path class="a" d="M354.13,584.91a6.86,6.86,0,0,1-2,3.88,4.82,4.82,0,0,1-7.13-.48,7.16,7.16,0,0,1-1.62-4.94,6.82,6.82,0,0,1,1.79-4.9,5.74,5.74,0,0,1,4.3-1.88,4.7,4.7,0,0,1,3.1,1,2.75,2.75,0,0,1,1.22,2.07,1.13,1.13,0,0,1-.34.86,1.32,1.32,0,0,1-1,.33,1.44,1.44,0,0,1-1.23-.53,2.13,2.13,0,0,1-.33-1.12,1.87,1.87,0,0,0-.56-1.27,2,2,0,0,0-1.35-.42,2.76,2.76,0,0,0-2.25,1,5.52,5.52,0,0,0-1.13,3.63,7.36,7.36,0,0,0,1.12,4.05,3.46,3.46,0,0,0,3,1.75,3.7,3.7,0,0,0,2.46-.92,6.25,6.25,0,0,0,1.5-2.34Z" transform="translate(-108.09 -247.16)"/><path class="a" d="M365.64,581.8a6.54,6.54,0,0,0,1.38,4.45,4.23,4.23,0,0,0,3.28,1.61,3.58,3.58,0,0,0,2.18-.69A5,5,0,0,0,374,584.8l.43.28a6.65,6.65,0,0,1-1.7,3.5,4.55,4.55,0,0,1-3.53,1.57,5.15,5.15,0,0,1-3.94-1.79,6.87,6.87,0,0,1-1.64-4.82,7.28,7.28,0,0,1,1.68-5.11,5.47,5.47,0,0,1,4.22-1.83A4.71,4.71,0,0,1,373.1,578a5.2,5.2,0,0,1,1.38,3.79Zm0-.8h5.92a5.54,5.54,0,0,0-.29-1.73,2.76,2.76,0,0,0-1-1.22,2.59,2.59,0,0,0-1.44-.45,2.88,2.88,0,0,0-2.07.9A3.91,3.91,0,0,0,365.64,581Z" transform="translate(-108.09 -247.16)"/><path class="a" d="M388.2,569.9v17a4.65,4.65,0,0,0,.17,1.58,1.25,1.25,0,0,0,.54.59,3.09,3.09,0,0,0,1.35.2v.51H384v-.51a2.74,2.74,0,0,0,1.2-.18,1.22,1.22,0,0,0,.51-.6,4.67,4.67,0,0,0,.18-1.6V575.25a20.48,20.48,0,0,0-.1-2.63,1.16,1.16,0,0,0-.31-.67.84.84,0,0,0-.55-.18,2.62,2.62,0,0,0-.91.22l-.24-.51,3.8-1.57Z" transform="translate(-108.09 -247.16)"/><path class="a" d="M403.71,569.9v17a4.65,4.65,0,0,0,.17,1.58,1.25,1.25,0,0,0,.54.59,3.09,3.09,0,0,0,1.35.2v.51h-6.26v-.51a2.74,2.74,0,0,0,1.2-.18,1.22,1.22,0,0,0,.51-.6,4.67,4.67,0,0,0,.18-1.6V575.25a20.48,20.48,0,0,0-.1-2.63,1.16,1.16,0,0,0-.31-.67.84.84,0,0,0-.55-.18,2.62,2.62,0,0,0-.91.22l-.24-.51,3.8-1.57Z" transform="translate(-108.09 -247.16)"/><path class="a" d="M416.95,581.8a6.54,6.54,0,0,0,1.38,4.45,4.23,4.23,0,0,0,3.28,1.61,3.58,3.58,0,0,0,2.18-.69,5,5,0,0,0,1.56-2.37l.43.28a6.65,6.65,0,0,1-1.7,3.5,4.55,4.55,0,0,1-3.53,1.57,5.15,5.15,0,0,1-3.94-1.79,6.87,6.87,0,0,1-1.64-4.82,7.28,7.28,0,0,1,1.68-5.11,5.47,5.47,0,0,1,4.22-1.83A4.72,4.72,0,0,1,424.4,578a5.2,5.2,0,0,1,1.38,3.79Zm0-.8h5.92a5.53,5.53,0,0,0-.29-1.73,2.76,2.76,0,0,0-1-1.22,2.59,2.59,0,0,0-1.44-.45,2.88,2.88,0,0,0-2.07.9A3.91,3.91,0,0,0,416.95,581Z" transform="translate(-108.09 -247.16)"/><path class="a" d="M438.81,579.27q2.24-2.68,4.27-2.68a3.07,3.07,0,0,1,1.8.52,3.5,3.5,0,0,1,1.2,1.72,8,8,0,0,1,.31,2.57v5.47a4.61,4.61,0,0,0,.2,1.64,1.14,1.14,0,0,0,.49.54,2.82,2.82,0,0,0,1.26.2v.51H442v-.51h.27a2.12,2.12,0,0,0,1.24-.27,1.43,1.43,0,0,0,.49-.8,7.89,7.89,0,0,0,.06-1.31v-5.27a5.41,5.41,0,0,0-.45-2.55,1.6,1.6,0,0,0-1.52-.79,4.56,4.56,0,0,0-3.29,1.82v6.79a4.84,4.84,0,0,0,.15,1.6,1.34,1.34,0,0,0,.54.59,3.38,3.38,0,0,0,1.39.19v.51h-6.35v-.51h.28a1.51,1.51,0,0,0,1.32-.49,3.58,3.58,0,0,0,.34-1.88v-4.75a20.27,20.27,0,0,0-.1-2.8,1.21,1.21,0,0,0-.32-.69.88.88,0,0,0-.58-.18,2.7,2.7,0,0,0-.93.21l-.21-.51,3.86-1.57h.6Z" transform="translate(-108.09 -247.16)"/><path class="a" d="M467.83,584.91a6.86,6.86,0,0,1-2,3.88,4.82,4.82,0,0,1-7.13-.48,7.16,7.16,0,0,1-1.62-4.94,6.82,6.82,0,0,1,1.79-4.9,5.74,5.74,0,0,1,4.3-1.88,4.7,4.7,0,0,1,3.1,1,2.75,2.75,0,0,1,1.22,2.07,1.13,1.13,0,0,1-.34.86,1.32,1.32,0,0,1-1,.33,1.44,1.44,0,0,1-1.23-.53,2.13,2.13,0,0,1-.33-1.12,1.87,1.87,0,0,0-.56-1.27,2,2,0,0,0-1.35-.42,2.76,2.76,0,0,0-2.25,1,5.52,5.52,0,0,0-1.13,3.63,7.36,7.36,0,0,0,1.12,4.05,3.46,3.46,0,0,0,3,1.75,3.7,3.7,0,0,0,2.46-.92,6.25,6.25,0,0,0,1.5-2.34Z" transform="translate(-108.09 -247.16)"/><path class="a" d="M479.35,581.8a6.54,6.54,0,0,0,1.38,4.45,4.23,4.23,0,0,0,3.28,1.61,3.58,3.58,0,0,0,2.18-.69,5,5,0,0,0,1.56-2.37l.43.28a6.65,6.65,0,0,1-1.7,3.5,4.55,4.55,0,0,1-3.53,1.57,5.15,5.15,0,0,1-3.94-1.79,6.87,6.87,0,0,1-1.64-4.82,7.28,7.28,0,0,1,1.68-5.11,5.47,5.47,0,0,1,4.22-1.83A4.71,4.71,0,0,1,486.8,578a5.2,5.2,0,0,1,1.38,3.79Zm0-.8h5.92a5.53,5.53,0,0,0-.29-1.73,2.76,2.76,0,0,0-1-1.22,2.59,2.59,0,0,0-1.44-.45,2.88,2.88,0,0,0-2.07.9A3.91,3.91,0,0,0,479.35,581Z" transform="translate(-108.09 -247.16)"/><path class="a" d="M208.18,462.64s28.09,5.29,51.27,18,38.38,26.37,38.38,26.86,15.16-14.24,38-26.94,51.15-18,51.15-18v11.42s-18.88,2.65-42.93,15.31-38.32,26.84-38.32,26.86v8l-.12.32-.15.28-.2.29-.23.25-.28.23-.29.19-.32.16-.3.11H292.49l-.37-.08-.34-.11-.33-.14-.31-.22-.3-.3-.22-.32-.18-.29-.1-.33v-7.61s-17.06-15.62-35.62-25.6-46.63-17.06-46.56-17Z" transform="translate(-108.09 -247.16)"/><path class="b" d="M208.18,494.32s28.09,5.29,51.27,18,38.38,26.37,38.38,26.86,15.16-14.24,38-26.94,51.15-18,51.15-18v11.42s-18.88,2.65-42.93,15.31-38.32,26.84-38.32,26.86v8l-.12.32-.15.28-.2.29-.23.25-.28.23-.29.19-.32.16-.3.11H292.49l-.37-.08-.34-.11-.33-.14-.31-.22-.3-.3-.22-.32-.18-.29-.1-.33v-7.61s-17.06-15.62-35.62-25.61-46.63-17.06-46.56-17Z" transform="translate(-108.09 -247.16)"/><path class="c" d="M298.14,247.16c79.61,0,144.53,64.93,144.53,144.53A143.94,143.94,0,0,1,404.83,489l-7.15-7.15a133.86,133.86,0,0,0,34.88-90.17c0-74-60.38-134.42-134.42-134.42S163.72,317.66,163.72,391.7a133.86,133.86,0,0,0,34.66,89.93l-7.16,7.16A144,144,0,0,1,153.6,391.7C153.6,312.09,218.53,247.16,298.14,247.16Z" transform="translate(-108.09 -247.16)"/><path class="a" d="M239.05,350.52a14.18,14.18,0,0,1,6.9,3.15,9.78,9.78,0,0,1,3.17,7.37,11,11,0,0,1-2.09,6.35,11.94,11.94,0,0,1-5.74,4.42q-3.63,1.39-11.12,1.4H209.27V372h1.65a4.45,4.45,0,0,0,4-1.77c.5-.76.75-2.39.75-4.87V336.64q0-4.12-.94-5.19a4.76,4.76,0,0,0-3.77-1.44h-1.65v-1.2H228.4a37.63,37.63,0,0,1,8.58.78,13.81,13.81,0,0,1,7.48,4.18,10.24,10.24,0,0,1,2.58,6.89,9.56,9.56,0,0,1-2,6,11.84,11.84,0,0,1-6,3.91Zm-17.13-1.82a24.68,24.68,0,0,0,2.76.35c1,.08,2.18.11,3.42.11a19.24,19.24,0,0,0,7.18-1A7.65,7.65,0,0,0,239,345a8.88,8.88,0,0,0,1.26-4.62,8.46,8.46,0,0,0-3.17-6.62q-3.16-2.73-9.23-2.73a22.2,22.2,0,0,0-5.88.71v17Zm0,21.28a33,33,0,0,0,7.51.88q5.94,0,9.07-2.67a8.34,8.34,0,0,0,3.11-6.59,9.39,9.39,0,0,0-1.45-5,9.61,9.61,0,0,0-4.61-3.76,19.76,19.76,0,0,0-7.85-1.37c-1.35,0-2.5,0-3.46.07a19.23,19.23,0,0,0-2.32.22Z" transform="translate(-108.09 -247.16)"/><path class="a" d="M298.11,373.21H286.22l-15.08-20.76q-1.62.07-2.65.07l-.89,0-1,0v12.93q0,4.19.92,5.19a4.64,4.64,0,0,0,3.72,1.44H273v1.2h-19V372h1.66a4.46,4.46,0,0,0,4-1.83c.46-.67.68-2.28.68-4.8V336.64c0-2.79-.3-4.52-.92-5.19a4.79,4.79,0,0,0-3.78-1.44h-1.66v-1.2h16.16a38.63,38.63,0,0,1,10.43,1,11.9,11.9,0,0,1,5.69,3.81,9.86,9.86,0,0,1,2.34,6.6,10.39,10.39,0,0,1-2.67,7.11c-1.78,2-4.53,3.43-8.27,4.26l9.19,12.72c2.1,2.92,3.9,4.88,5.4,5.84a13.45,13.45,0,0,0,5.88,1.84v1.2ZM266.6,350.37h1.07l.74,0q6.28,0,9.47-2.75a8.85,8.85,0,0,0,3.19-7,8.87,8.87,0,0,0-9.39-9.37,29.16,29.16,0,0,0-5.08.6Z" transform="translate(-108.09 -247.16)"/><path class="a" d="M328.17,358.4H311l-3,7a11.19,11.19,0,0,0-1.12,3.86,2.26,2.26,0,0,0,1,1.79c.64.5,2,.84,4.17,1v1.2H298V372a7.48,7.48,0,0,0,3.59-1.27q1.67-1.57,3.7-6.39l15.62-36.55H322l15.44,36.94c1.24,3,2.37,4.89,3.38,5.78a6.91,6.91,0,0,0,4.24,1.49v1.2h-17.5V372a6.6,6.6,0,0,0,3.58-.88,2.27,2.27,0,0,0,.93-1.84,13.64,13.64,0,0,0-1.31-4.55l-2.62-6.32Zm-1-2.41-7.48-17.92L312,356Z" transform="translate(-108.09 -247.16)"/><path class="a" d="M386.18,327.79l1,15.07h-1c-1.35-4.51-3.27-7.77-5.77-9.75a14,14,0,0,0-9-3,14.59,14.59,0,0,0-7.95,2.24,14.84,14.84,0,0,0-5.59,7.16,32.12,32.12,0,0,0-2,12.21,26,26,0,0,0,1.92,10.45,14.51,14.51,0,0,0,5.78,6.78,16.56,16.56,0,0,0,8.81,2.36,15.26,15.26,0,0,0,7.59-1.84q3.3-1.84,7.23-7.33l1,.67a23.29,23.29,0,0,1-7.77,8.65,19.73,19.73,0,0,1-10.54,2.74q-11,0-17-8.18a23.46,23.46,0,0,1-4.51-14.34,25.57,25.57,0,0,1,3-12.21,21.52,21.52,0,0,1,8.16-8.63,22,22,0,0,1,11.36-3.06,20.73,20.73,0,0,1,9.45,2.36,5.11,5.11,0,0,0,2,.72,2.16,2.16,0,0,0,1.53-.62,5,5,0,0,0,1.21-2.46Z" transform="translate(-108.09 -247.16)"/><path class="a" d="M199.74,392.72V392h9.32v.72h-1a2.69,2.69,0,0,0-2.4,1.31,6,6,0,0,0-.41,2.81v10.75a19,19,0,0,1-.79,6.19,7.76,7.76,0,0,1-3.11,3.77,11,11,0,0,1-6.29,1.57q-4.33,0-6.57-1.51a8.1,8.1,0,0,1-3.18-4,22.39,22.39,0,0,1-.63-6.53V396.68q0-2.44-.67-3.2a2.76,2.76,0,0,0-2.17-.76h-1V392H192.3v.72h-1a2.63,2.63,0,0,0-2.34,1,5.77,5.77,0,0,0-.49,2.93v11.55a25.81,25.81,0,0,0,.28,3.54,7.63,7.63,0,0,0,1,3.11,5.7,5.7,0,0,0,2.14,1.84,7.41,7.41,0,0,0,3.43.72,9.48,9.48,0,0,0,4.65-1.13,6.07,6.07,0,0,0,2.8-2.9,16.85,16.85,0,0,0,.75-6V396.68c0-1.65-.18-2.69-.55-3.1a2.86,2.86,0,0,0-2.26-.86Z" transform="translate(-108.09 -247.16)"/><path class="a" d="M209,392h7.13l16.25,19.91V396.6c0-1.63-.19-2.65-.55-3.06a3,3,0,0,0-2.31-.82h-.93V392h9.32v.72h-.95a2.75,2.75,0,0,0-2.42,1,6,6,0,0,0-.43,2.86v22.34h-.71l-17.45-21.36v16.33c0,1.63.18,2.65.53,3.06a3,3,0,0,0,2.32.82h.95v.72h-9.32v-.72h.93a2.77,2.77,0,0,0,2.43-1,5.94,5.94,0,0,0,.43-2.86V395.48a12.26,12.26,0,0,0-1.75-1.78,6.69,6.69,0,0,0-1.75-.81,6.43,6.43,0,0,0-1.72-.17Z" transform="translate(-108.09 -247.16)"/><path class="a" d="M250.75,417.8v.72H239.39v-.72h.94a2.86,2.86,0,0,0,2.39-1,6,6,0,0,0,.47-3V396.68a8.78,8.78,0,0,0-.25-2.65,1.76,1.76,0,0,0-.81-.84,3.69,3.69,0,0,0-1.8-.47h-.94V392h11.36v.72h-1a2.81,2.81,0,0,0-2.36,1,5.73,5.73,0,0,0-.49,3v17.16a8.81,8.81,0,0,0,.25,2.65,1.7,1.7,0,0,0,.82.84,3.56,3.56,0,0,0,1.77.47Z" transform="translate(-108.09 -247.16)"/><path class="a" d="M280.08,392v.72a4.3,4.3,0,0,0-2.13.91,8.2,8.2,0,0,0-1.83,3l-9.2,22.54h-.72l-9.91-22.84a12.59,12.59,0,0,0-1.07-2.16,3.46,3.46,0,0,0-1.21-1,5.57,5.57,0,0,0-1.92-.44V392H262.9v.72a5,5,0,0,0-2.39.63,1.43,1.43,0,0,0-.55,1.15,8.81,8.81,0,0,0,.9,3l6.74,15.52,6.26-15.33a10.33,10.33,0,0,0,.92-3.15,1.49,1.49,0,0,0-.57-1.08,3.72,3.72,0,0,0-1.91-.73l-.33-.06V392Z" transform="translate(-108.09 -247.16)"/><path class="a" d="M288.95,393.44v10.48h5.84a4.75,4.75,0,0,0,3-.68,4.39,4.39,0,0,0,1.13-3.16h.72v9.24h-.72a10.23,10.23,0,0,0-.55-2.49,2.44,2.44,0,0,0-1.15-1.07,5.87,5.87,0,0,0-2.46-.39h-5.84v8.75a8.38,8.38,0,0,0,.15,2.14,1.23,1.23,0,0,0,.55.61,3.26,3.26,0,0,0,1.49.23h4.49a12.27,12.27,0,0,0,3.26-.31,4.84,4.84,0,0,0,1.95-1.23,15.12,15.12,0,0,0,2.48-3.65h.8l-2.29,6.64H281.39v-.72h.94a3.71,3.71,0,0,0,1.78-.45,1.62,1.62,0,0,0,.85-.94,9.15,9.15,0,0,0,.23-2.57V396.6c0-1.68-.17-2.71-.51-3.1a3,3,0,0,0-2.35-.78h-.94V392h20.44l.28,5.84h-.76a9.31,9.31,0,0,0-.91-2.9,3.16,3.16,0,0,0-1.47-1.2,8.85,8.85,0,0,0-2.75-.29Z" transform="translate(-108.09 -247.16)"/><path class="a" d="M332.07,418.52H325l-9-12.4q-1,0-1.58,0h-.53l-.59,0v7.72q0,2.5.55,3.1a2.77,2.77,0,0,0,2.22.86h1v.72H305.7v-.72h1a2.66,2.66,0,0,0,2.4-1.09,6.15,6.15,0,0,0,.41-2.87V396.68c0-1.67-.18-2.7-.55-3.1a2.86,2.86,0,0,0-2.26-.86h-1V392h9.65a23.09,23.09,0,0,1,6.23.61,7.11,7.11,0,0,1,3.4,2.27,5.89,5.89,0,0,1,1.4,3.94,6.2,6.2,0,0,1-1.59,4.24,9,9,0,0,1-4.94,2.55l5.49,7.59a13.66,13.66,0,0,0,3.23,3.49,8,8,0,0,0,3.51,1.1v.72Zm-18.81-13.64h1.08a8.45,8.45,0,0,0,5.65-1.64,5.28,5.28,0,0,0,1.91-4.18,5.3,5.3,0,0,0-5.61-5.59,17.27,17.27,0,0,0-3,.36Z" transform="translate(-108.09 -247.16)"/><path class="a" d="M350.06,391.4v9.16h-.72a11.38,11.38,0,0,0-1.26-4.2,6.58,6.58,0,0,0-2.6-2.48A7.14,7.14,0,0,0,342,393a4.74,4.74,0,0,0-3.37,1.24A3.78,3.78,0,0,0,337.3,397a3.36,3.36,0,0,0,.84,2.21q1.22,1.46,5.77,3.91a40.57,40.57,0,0,1,5.08,3.06,7.43,7.43,0,0,1,2.09,2.51,6.64,6.64,0,0,1,.73,3,6.86,6.86,0,0,1-2.33,5.19,8.47,8.47,0,0,1-6,2.18,12.48,12.48,0,0,1-2.17-.18,22.47,22.47,0,0,1-2.51-.72,11.13,11.13,0,0,0-2.41-.62,1,1,0,0,0-.77.29,2.44,2.44,0,0,0-.42,1.23h-.72V410h.72a12.85,12.85,0,0,0,1.37,4.27,6.51,6.51,0,0,0,2.63,2.35,8.14,8.14,0,0,0,3.88.94,5.51,5.51,0,0,0,3.86-1.29,4,4,0,0,0,1.42-3.06,4.21,4.21,0,0,0-.53-2,6,6,0,0,0-1.67-1.87,46.06,46.06,0,0,0-4.17-2.49,39.55,39.55,0,0,1-4.85-3,8.19,8.19,0,0,1-2.19-2.5,6.17,6.17,0,0,1-.75-3,6.52,6.52,0,0,1,2.19-4.91A7.83,7.83,0,0,1,342,391.4a11.28,11.28,0,0,1,4.49,1,4.58,4.58,0,0,0,1.55.49,1.17,1.17,0,0,0,.83-.3,2.48,2.48,0,0,0,.52-1.22Z" transform="translate(-108.09 -247.16)"/><path class="a" d="M366.3,417.8v.72H354.94v-.72h.94a2.86,2.86,0,0,0,2.39-1,6,6,0,0,0,.47-3V396.68a8.77,8.77,0,0,0-.25-2.65,1.76,1.76,0,0,0-.81-.84,3.69,3.69,0,0,0-1.8-.47h-.94V392H366.3v.72h-1a2.81,2.81,0,0,0-2.36,1,5.73,5.73,0,0,0-.49,3v17.16a8.81,8.81,0,0,0,.25,2.65,1.7,1.7,0,0,0,.82.84,3.56,3.56,0,0,0,1.77.47Z" transform="translate(-108.09 -247.16)"/><path class="a" d="M390.42,392l.28,6.23H390a7.62,7.62,0,0,0-.59-2.35,3.9,3.9,0,0,0-1.61-1.67,5.59,5.59,0,0,0-2.65-.54h-3.73v20.24c0,1.63.17,2.65.53,3.06a2.91,2.91,0,0,0,2.28.82h.91v.72H373.82v-.72h1a2.74,2.74,0,0,0,2.41-1,5.94,5.94,0,0,0,.43-2.86V393.68h-3.18a8.92,8.92,0,0,0-2.64.27,3.61,3.61,0,0,0-1.74,1.43,5.81,5.81,0,0,0-.86,2.85h-.74l.28-6.23Z" transform="translate(-108.09 -247.16)"/><path class="a" d="M410.79,392H420v.72h-.51a4,4,0,0,0-1.49.45,5.87,5.87,0,0,0-1.78,1.29,17.75,17.75,0,0,0-2,2.75l-6.37,10v6.75c0,1.63.19,2.65.55,3.06a3.07,3.07,0,0,0,2.37.82h.87v.72H400.37v-.72h1a2.74,2.74,0,0,0,2.41-1,5.94,5.94,0,0,0,.43-2.86v-6.2l-7.25-11.21a23,23,0,0,0-1.75-2.43,6.77,6.77,0,0,0-1.91-1.17,2.64,2.64,0,0,0-1.13-.19V392h11.31v.72h-.59a3.41,3.41,0,0,0-1.69.43,1.39,1.39,0,0,0-.77,1.29,6.16,6.16,0,0,0,1.2,2.55l5.49,8.54,5.23-8.17a6,6,0,0,0,1.17-2.74,1.77,1.77,0,0,0-.28-1,1.9,1.9,0,0,0-.81-.67,3.85,3.85,0,0,0-1.58-.25Z" transform="translate(-108.09 -247.16)"/><path class="c" d="M208.18,430.1s28.09,5.29,51.27,18,38.38,26.37,38.38,26.86,15.16-14.24,38-26.94,51.15-18,51.15-18v11.42s-18.88,2.65-42.93,15.31-38.32,26.84-38.32,26.86v8l-.12.32-.15.28-.2.29-.23.25-.28.23-.29.19-.32.16-.3.11H292.49l-.37-.08-.34-.11-.33-.14-.31-.22-.3-.3-.22-.32-.18-.29-.1-.33v-7.61s-17.06-15.62-35.62-25.61-46.63-17.06-46.56-17Z" transform="translate(-108.09 -247.16)"/></svg>