<svg width="14" height="11" viewBox="0 0 14 11" fill="none" xmlns="http://www.w3.org/2000/svg">
<path d="M12.6875 0.5H1.3125C0.574219 0.5 0 1.10156 0 1.8125V9.6875C0 10.4258 0.574219 11 1.3125 11H12.6875C13.3984 11 14 10.4258 14 9.6875V1.8125C14 1.10156 13.3984 0.5 12.6875 0.5ZM1.3125 1.375H12.6875C12.9062 1.375 13.125 1.59375 13.125 1.8125V2.96094C12.5234 3.45312 11.6484 4.16406 8.99609 6.26953C8.53125 6.65234 7.62891 7.52734 7 7.5C6.34375 7.52734 5.44141 6.65234 4.97656 6.26953C2.32422 4.16406 1.44922 3.45312 0.875 2.96094V1.8125C0.875 1.59375 1.06641 1.375 1.3125 1.375ZM12.6875 10.125H1.3125C1.06641 10.125 0.875 9.93359 0.875 9.6875V4.08203C1.47656 4.60156 2.46094 5.39453 4.42969 6.95312C5.00391 7.41797 5.98828 8.40234 7 8.375C7.98438 8.40234 8.96875 7.41797 9.54297 6.95312C11.5117 5.39453 12.4961 4.60156 13.125 4.08203V9.6875C13.125 9.93359 12.9062 10.125 12.6875 10.125Z" fill="#EBEDFA"/>
</svg>
