<svg width="18" height="19" viewBox="0 0 18 19" fill="none" xmlns="http://www.w3.org/2000/svg">
<path d="M9 7.42969C7.82812 7.42969 6.89062 8.36719 6.89062 9.5C6.89062 10.6719 7.82812 11.6094 9 11.6094C10.1328 11.6094 11.0703 10.6719 11.0703 9.5C11.0703 8.36719 10.1328 7.42969 9 7.42969ZM13.8438 5.82812C13.6484 5.35938 13.1406 4.8125 12.6719 4.65625C11.8516 4.30469 9.89844 4.38281 9 4.38281C8.0625 4.38281 6.10938 4.30469 5.28906 4.65625C4.82031 4.8125 4.3125 5.35938 4.11719 5.82812C3.80469 6.64844 3.84375 8.60156 3.84375 9.5C3.84375 10.4375 3.80469 12.3906 4.11719 13.2109C4.3125 13.6797 4.82031 14.1875 5.28906 14.3828C6.10938 14.7344 8.0625 14.6562 9 14.6562C9.89844 14.6562 11.8516 14.7344 12.6719 14.3828C13.1406 14.1875 13.6875 13.6797 13.8438 13.2109C14.1953 12.3906 14.1172 10.4375 14.1172 9.5C14.1172 8.60156 14.1953 6.64844 13.8438 5.82812ZM9 12.7031C7.20312 12.7031 5.79688 11.2969 5.79688 9.5C5.79688 7.74219 7.20312 6.29688 9 6.29688C10.7578 6.29688 12.2031 7.74219 12.2031 9.5V9.53906C12.2031 11.2969 10.7578 12.7031 9 12.7031ZM12.3203 6.92188C11.8906 6.92188 11.5781 6.60938 11.5781 6.17969C11.5781 5.75 11.8906 5.4375 12.3203 5.4375C12.7109 5.4375 13.0625 5.75 13.0625 6.17969C13.0625 6.60938 12.7109 6.92188 12.3203 6.92188ZM15.875 0.75H2.125C1.07031 0.75 0.25 1.60938 0.25 2.625V16.375C0.25 17.4297 1.07031 18.25 2.125 18.25H15.875C16.8906 18.25 17.75 17.4297 17.75 16.375V2.625C17.75 1.60938 16.8906 0.75 15.875 0.75ZM15.1719 12.0781C15.1328 13.0938 14.8984 13.9922 14.1953 14.6953C13.4531 15.4375 12.5547 15.6719 11.5781 15.7109C10.5234 15.7891 7.4375 15.7891 6.42188 15.7109C5.40625 15.6719 4.50781 15.4375 3.80469 14.6953C3.0625 13.9922 2.82812 13.0938 2.78906 12.0781C2.71094 11.0625 2.71094 7.97656 2.78906 6.92188C2.82812 5.94531 3.0625 5.04688 3.80469 4.30469C4.50781 3.60156 5.40625 3.36719 6.42188 3.32812C7.4375 3.25 10.5234 3.25 11.5781 3.32812C12.5547 3.36719 13.4531 3.60156 14.1953 4.34375C14.8984 5.04688 15.1328 5.94531 15.1719 6.96094C15.25 7.97656 15.25 11.0625 15.1719 12.0781Z" fill="#EBEDFA"/>
</svg>
