<svg width="11" height="15" viewBox="0 0 11 15" fill="none" xmlns="http://www.w3.org/2000/svg">
<path d="M5.5 3.375C4.05078 3.375 2.875 4.57812 2.875 6C2.875 7.44922 4.05078 8.625 5.5 8.625C6.92188 8.625 8.125 7.44922 8.125 6C8.125 4.57812 6.92188 3.375 5.5 3.375ZM5.5 7.75C4.51562 7.75 3.75 6.98438 3.75 6C3.75 5.04297 4.51562 4.25 5.5 4.25C6.45703 4.25 7.25 5.04297 7.25 6C7.25 6.98438 6.45703 7.75 5.5 7.75ZM5.5 0.75C2.57422 0.75 0.25 3.10156 0.25 6C0.25 8.13281 0.960938 8.73438 4.95312 14.4766C5.19922 14.8594 5.77344 14.8594 6.01953 14.4766C10.0117 8.73438 10.75 8.13281 10.75 6C10.75 3.10156 8.39844 0.75 5.5 0.75ZM5.5 13.7109C1.67188 8.21484 1.125 7.77734 1.125 6C1.125 4.85156 1.5625 3.75781 2.38281 2.91016C3.23047 2.08984 4.32422 1.625 5.5 1.625C6.64844 1.625 7.74219 2.08984 8.58984 2.91016C9.41016 3.75781 9.875 4.85156 9.875 6C9.875 7.77734 9.30078 8.21484 5.5 13.7109Z" fill="#EBEDFA"/>
</svg>
