<svg width="18" height="19" viewBox="0 0 18 19" fill="none" xmlns="http://www.w3.org/2000/svg">
<path d="M0.25 0.75V18.25H17.75V0.75H0.25ZM14.7812 4.92969L13.8438 5.82812C13.7656 5.86719 13.7266 5.98438 13.7266 6.0625V12.7031C13.7266 12.7812 13.7656 12.8984 13.8438 12.9375L14.7422 13.8359V14.0312H10.1328V13.8359L11.1094 12.9375C11.1875 12.8203 11.1875 12.8203 11.1875 12.6641V7.3125L8.53125 14.0312H8.17969L5.13281 7.3125V11.8047C5.09375 12 5.17188 12.1953 5.28906 12.3125L6.53906 13.8359V14.0312H3.02344V13.8359L4.23438 12.3125C4.39062 12.1953 4.42969 12 4.39062 11.8047V6.60938C4.42969 6.49219 4.35156 6.33594 4.27344 6.21875L3.17969 4.92969V4.69531H6.57812L9.19531 10.4766L11.5391 4.73438H14.7812V4.92969Z" fill="#EBEDFA"/>
</svg>
