<svg width="9" height="15" viewBox="0 0 9 15" fill="none" xmlns="http://www.w3.org/2000/svg">
<path d="M5.375 12.125C5.375 11.6602 4.96484 11.25 4.5 11.25C4.00781 11.25 3.625 11.6602 3.625 12.125C3.625 12.6172 4.00781 13 4.5 13C4.96484 13 5.375 12.6172 5.375 12.125ZM8.875 2.0625C8.875 1.35156 8.27344 0.75 7.5625 0.75H1.4375C0.699219 0.75 0.125 1.35156 0.125 2.0625V13.4375C0.125 14.1758 0.699219 14.75 1.4375 14.75H7.5625C8.27344 14.75 8.875 14.1758 8.875 13.4375V2.0625ZM8 2.0625V13.4375C8 13.6836 7.78125 13.875 7.5625 13.875H1.4375C1.19141 13.875 1 13.6836 1 13.4375V2.0625C1 1.84375 1.19141 1.625 1.4375 1.625H7.5625C7.78125 1.625 8 1.84375 8 2.0625Z" fill="#EBEDFA"/>
</svg>
