<svg width="109" height="96" viewBox="0 0 109 96" fill="none" xmlns="http://www.w3.org/2000/svg">
<path d="M103.036 38.1018L99.205 25.8633C99.8609 24.9391 100.234 23.8062 100.234 22.5838C100.234 19.4087 97.6547 16.8298 94.4795 16.8298C93.3019 16.8298 92.2137 17.1875 91.3044 17.7838L78.3652 9.58506C78.4099 9.31674 78.4398 9.04842 78.4398 8.7801C78.4398 5.60494 75.8609 3.02606 72.6857 3.02606C70.2261 3.02606 68.1391 4.59128 67.3193 6.76767L51.1304 4.27823C50.4596 1.83351 48.2534 0.0297852 45.6 0.0297852C42.5292 0.0297852 40.0398 2.44469 39.8758 5.48569L22.3901 11.523C21.3317 10.241 19.7516 9.42109 17.9776 9.42109C14.8025 9.42109 12.2236 12 12.2236 15.1751C12.2236 16.6956 12.8199 18.0521 13.7739 19.0807L6.85714 30.9615C6.49938 30.8869 6.12671 30.8571 5.75404 30.8571C2.57888 30.8571 0 33.436 0 36.6111C0 39.7863 2.57888 42.3652 5.75404 42.3652L10.1665 54.395C8.92919 55.4534 8.12422 57.0037 8.12422 58.7627C8.12422 61.9379 10.7031 64.5167 13.8783 64.5167C14.8174 64.5167 15.682 64.2782 16.4721 63.8757L28.2783 69.0335C28.8447 71.6124 31.1404 73.5503 33.8981 73.5503C36.8944 73.5503 39.3391 71.2397 39.6075 68.3031L49.7292 65.8285C50.7429 67.4832 52.5466 68.5863 54.6186 68.5863C55.0062 68.5863 55.3938 68.5416 55.7516 68.467L62.3702 85.8037C61.0584 86.8621 60.1938 88.4571 60.1938 90.2757C60.1938 93.4509 62.7727 96.0298 65.9478 96.0298C69.123 96.0298 71.7019 93.4509 71.7019 90.2757C71.7019 88.3975 70.7776 86.7279 69.3764 85.6844L72.2683 75.1155C75.1603 75.041 77.5006 72.8497 77.8286 70.0174L87.1603 67.7366C88.1888 69.3018 89.9627 70.3453 91.9752 70.3453C95.1503 70.3453 97.7292 67.7664 97.7292 64.5913C97.7292 63.4882 97.4013 62.4596 96.8646 61.595L102.529 49.6099C102.619 49.6099 102.693 49.6397 102.768 49.6397C105.943 49.6397 108.522 47.0608 108.522 43.8857C108.522 40.7105 106.062 38.2807 102.991 38.1466L103.036 38.1018ZM97.2522 22.5838C97.2522 24.1192 96 25.3565 94.4795 25.3565C92.959 25.3565 91.7068 24.1043 91.7068 22.5838C91.7068 21.0633 92.959 19.8111 94.4795 19.8111C96 19.8111 97.2522 21.0633 97.2522 22.5838ZM90.4398 59.0459C90.1416 59.1354 89.8435 59.2397 89.5603 59.359L78.8571 39.5776C79.1702 38.877 79.3342 38.1018 79.3342 37.282C79.3342 36.4621 79.1702 35.7167 78.8721 35.031L90.1863 26.4C90.6186 26.8919 91.1255 27.2944 91.7068 27.6074L90.4398 59.0459ZM67.2894 66.3205L60.328 63.3242C60.3429 63.1453 60.3876 62.9813 60.3876 62.7875C60.3876 61.8633 60.1491 60.9987 59.7615 60.2236L71.836 42.7379C72.0447 42.7975 72.2385 42.8869 72.4621 42.9167L71.2547 63.667C69.5851 63.9354 68.154 64.9192 67.2894 66.3056V66.3205ZM33.913 61.9975C31.4087 61.9975 29.3068 63.6074 28.5168 65.8285L18.8571 61.6099C19.3491 60.7602 19.6621 59.7764 19.6621 58.718C19.6621 57.8534 19.4534 57.0484 19.1106 56.3031L30.2162 42.7379C30.9168 43.036 31.677 43.2149 32.4969 43.2149C34.4348 43.2149 36.1342 42.2459 37.1776 40.7851L46.6286 42.6037C46.6137 42.7826 46.5689 42.9466 46.5689 43.1254C46.5689 43.9602 46.7478 44.7503 47.0758 45.4658L34.6286 62.0571C34.3901 62.0273 34.1516 61.9826 33.8981 61.9826L33.913 61.9975ZM45.6 11.508C46.2261 11.508 46.8075 11.3888 47.3739 11.195L52.2186 18.6186C51.1453 19.6621 50.4745 21.123 50.4745 22.7478C50.4745 23.4484 50.6236 24.1043 50.8472 24.7155L36.2832 33.1379C35.9106 32.8099 35.5081 32.5416 35.0609 32.318L44.5267 11.3888C44.8696 11.4484 45.2273 11.4931 45.6 11.4931V11.508ZM71.4634 14.3851L72.2534 31.7068C71.5975 31.8708 70.9863 32.1242 70.4348 32.482L61.5503 24.954C61.8335 24.2832 61.9826 23.5379 61.9826 22.7627C61.9826 19.5875 59.4037 17.0087 56.2286 17.0087C55.7516 17.0087 55.2894 17.0832 54.8422 17.2025L49.8783 9.59997C50.4596 8.94407 50.8919 8.15401 51.1304 7.28941L67.036 9.73413C67.4236 12.0447 69.1826 13.8931 71.4634 14.4V14.3851ZM57.3913 40.4273C56.4224 38.6236 54.5292 37.3714 52.3379 37.3714C50.4149 37.3714 48.7155 38.3254 47.6721 39.7714L38.2062 37.9528C38.2062 37.7888 38.2509 37.6248 38.2509 37.4608C38.2509 36.8198 38.1168 36.2087 37.923 35.6422L52.5615 27.1751C53.5602 28.0099 54.8273 28.5167 56.2137 28.5167C57.5404 28.5167 58.7329 28.0546 59.7168 27.3093L68.4522 34.718C68.0646 35.4931 67.8261 36.3577 67.8261 37.282C67.8261 37.4161 67.8559 37.5354 67.8708 37.6546L57.3913 40.4273ZM56.2286 25.5354C54.6932 25.5354 53.4559 24.2832 53.4559 22.7627C53.4559 21.2422 54.7081 19.99 56.2286 19.99C57.7491 19.99 59.0012 21.2422 59.0012 22.7627C59.0012 24.2832 57.7491 25.5354 56.2286 25.5354ZM32.4969 34.6882C34.0323 34.6882 35.2696 35.9403 35.2696 37.4608C35.2696 38.9813 34.0174 40.2335 32.4969 40.2335C30.9764 40.2335 29.7242 38.9813 29.7242 37.4608C29.7242 35.9403 30.9615 34.6882 32.4969 34.6882ZM49.5652 43.1254C49.5652 41.59 50.8174 40.3528 52.3379 40.3528C53.8584 40.3528 55.1106 41.6049 55.1106 43.1254C55.1106 44.6459 53.8584 45.8981 52.3379 45.8981C50.8174 45.8981 49.5652 44.6459 49.5652 43.1254ZM55.528 57.123L54.8721 48.2832C56.7205 47.3739 58.0025 45.5105 58.077 43.3341L68.8099 40.5018C68.959 40.7254 69.1528 40.9341 69.3317 41.1279L57.7193 57.9428C57.0634 57.5254 56.318 57.2422 55.528 57.123ZM73.595 40.0546C72.0596 40.0546 70.8224 38.8025 70.8224 37.282C70.8224 35.7615 72.0745 34.5093 73.595 34.5093C75.1155 34.5093 76.3677 35.7615 76.3677 37.282C76.3677 38.8025 75.1155 40.0546 73.595 40.0546ZM89.3367 20.0497C88.964 20.8099 88.7255 21.6596 88.7255 22.5689C88.7255 22.9416 88.7702 23.2993 88.8298 23.6571L77.0236 32.6757C76.487 32.2733 75.8907 31.9751 75.2348 31.7813L74.4298 14.2062C75.518 13.8633 76.4571 13.2074 77.1578 12.3279L89.3217 20.0348L89.3367 20.0497ZM72.7006 5.97761C74.236 5.97761 75.4733 7.22978 75.4733 8.75028C75.4733 10.2708 74.2211 11.523 72.7006 11.523C71.1801 11.523 69.928 10.2708 69.928 8.75028C69.928 7.22978 71.1801 5.97761 72.7006 5.97761ZM45.6 2.96643C47.1354 2.96643 48.3727 4.21861 48.3727 5.7391C48.3727 7.2596 47.1205 8.51177 45.6 8.51177C44.0795 8.51177 42.8273 7.2596 42.8273 5.7391C42.8273 4.21861 44.0646 2.96643 45.6 2.96643ZM40.5168 8.37761C40.8596 9.03351 41.3068 9.59997 41.8584 10.077L32.0646 31.7366C31.4236 31.7813 30.8124 31.9155 30.246 32.154L22.3901 18.7975C23.2248 17.7987 23.7466 16.5316 23.7466 15.1304C23.7466 14.8174 23.7019 14.5043 23.6571 14.2062L40.5317 8.37761H40.5168ZM17.9776 12.3577C19.513 12.3577 20.7503 13.6099 20.7503 15.1304C20.7503 16.6509 19.4981 17.9031 17.9776 17.9031C16.4571 17.9031 15.205 16.6509 15.205 15.1304C15.205 13.6099 16.4422 12.3577 17.9776 12.3577ZM16.3081 20.6161C16.8447 20.7801 17.3963 20.8844 17.9776 20.8844C18.6634 20.8844 19.3193 20.7503 19.9304 20.5267L27.8758 34.0472C27.5031 34.554 27.2199 35.1205 27.0261 35.7466L11.2845 35.0757C10.9863 33.9577 10.3602 32.9888 9.52547 32.2584L16.2932 20.6161H16.3081ZM2.98137 36.5664C2.98137 35.031 4.21863 33.7938 5.75404 33.7938C7.28944 33.7938 8.52671 35.0459 8.52671 36.5664C8.52671 38.0869 7.27453 39.3391 5.75404 39.3391C4.23354 39.3391 2.98137 38.0869 2.98137 36.5664ZM8.64596 41.5155C9.92795 40.7552 10.8969 39.5329 11.2845 38.0571L26.8919 38.713C27.0708 39.5031 27.4137 40.2335 27.8907 40.8596L17.1578 53.9627C16.2335 53.3217 15.1006 52.949 13.8932 52.949C13.5503 52.949 13.2075 52.9938 12.8795 53.0534L8.64596 41.5155ZM11.1205 58.7031C11.1205 57.1677 12.3578 55.9304 13.8932 55.9304C15.4286 55.9304 16.6658 57.1826 16.6658 58.7031C16.6658 60.2236 15.4137 61.4757 13.8932 61.4757C12.3727 61.4757 11.1205 60.2236 11.1205 58.7031ZM33.913 70.5093C32.3776 70.5093 31.1404 69.2571 31.1404 67.7366C31.1404 66.2161 32.3776 64.964 33.913 64.964C35.4484 64.964 36.6857 66.2161 36.6857 67.7366C36.6857 69.2571 35.4335 70.5093 33.913 70.5093ZM39.1155 65.3068C38.728 64.5018 38.1764 63.8012 37.4758 63.2497L49.0435 47.836C49.8634 48.4174 50.8621 48.7602 51.9205 48.8497L52.5615 57.436C50.4149 58.2708 48.8795 60.3428 48.8795 62.7875C48.8795 62.8323 48.8795 62.877 48.8795 62.9217L39.1006 65.3068H39.1155ZM51.8609 62.7726C51.8609 61.2372 53.113 60 54.6335 60C56.154 60 57.4062 61.2521 57.4062 62.7726C57.4062 64.2931 56.154 65.5453 54.6335 65.5453C53.113 65.5453 51.8609 64.2931 51.8609 62.7726ZM65.9776 93.0037C64.4422 93.0037 63.205 91.7515 63.205 90.231C63.205 88.7105 64.4571 87.4584 65.9776 87.4584C67.4981 87.4584 68.7503 88.7105 68.7503 90.231C68.7503 91.7515 67.4981 93.0037 65.9776 93.0037ZM65.9776 84.477C65.6795 84.477 65.4112 84.5217 65.128 84.5664L58.4497 67.0658C58.7776 66.7826 59.0609 66.4695 59.3143 66.1118L66.4249 69.1826C66.4249 69.1826 66.4099 69.2869 66.4099 69.3316C66.4099 71.508 67.6323 73.3714 69.4062 74.3552L66.6186 84.5366C66.4099 84.5068 66.2012 84.477 65.9776 84.477ZM72.1789 72.1043C70.6435 72.1043 69.4062 70.8521 69.4062 69.3316C69.4062 67.8111 70.6584 66.559 72.1789 66.559C73.6994 66.559 74.9516 67.8111 74.9516 69.3316C74.9516 70.8521 73.6994 72.1043 72.1789 72.1043ZM77.441 67.0211C76.8298 65.6198 75.6671 64.5316 74.236 63.9801L75.4733 42.708C75.9503 42.5441 76.4124 42.3354 76.8298 42.0671L87.2646 61.3416C86.6385 62.2658 86.2808 63.3689 86.2808 64.5764C86.2808 64.6807 86.3106 64.7702 86.3106 64.8745L77.4559 67.036L77.441 67.0211ZM92.0199 67.3341C90.4845 67.3341 89.2472 66.082 89.2472 64.5615C89.2472 63.041 90.4845 61.7888 92.0199 61.7888C93.5553 61.7888 94.7925 63.041 94.7925 64.5615C94.7925 66.082 93.5404 67.3341 92.0199 67.3341ZM94.6137 59.4484C94.241 59.2546 93.8534 59.1056 93.4509 59.0012L94.6882 28.323C95.4186 28.2931 96.1044 28.159 96.7453 27.8907L100.159 38.7726C98.3404 39.7416 97.0882 41.6348 97.0882 43.841C97.0882 45.8683 98.1466 47.6422 99.7267 48.6708L94.6286 59.4484H94.6137ZM102.827 46.6136C101.292 46.6136 100.055 45.3615 100.055 43.841C100.055 42.3205 101.292 41.0683 102.827 41.0683C104.363 41.0683 105.6 42.3205 105.6 43.841C105.6 45.3615 104.348 46.6136 102.827 46.6136Z" fill="#6B50FF"/>
</svg>
