<svg width="135" height="48" viewBox="0 0 135 48" fill="none" xmlns="http://www.w3.org/2000/svg">
<rect width="135" height="48" rx="4" fill="#6B50FF"/>
<path d="M25.6506 18.8182L28.6733 27.3892H28.7926L31.8153 18.8182H33.108L29.3693 29H28.0966L24.358 18.8182H25.6506ZM34.6948 29V21.3636H35.8681V29H34.6948ZM35.2914 20.0909C35.0627 20.0909 34.8655 20.013 34.6998 19.8572C34.5374 19.7015 34.4562 19.5142 34.4562 19.2955C34.4562 19.0767 34.5374 18.8894 34.6998 18.7337C34.8655 18.5779 35.0627 18.5 35.2914 18.5C35.5201 18.5 35.7156 18.5779 35.878 18.7337C36.0438 18.8894 36.1266 19.0767 36.1266 19.2955C36.1266 19.5142 36.0438 19.7015 35.878 19.8572C35.7156 20.013 35.5201 20.0909 35.2914 20.0909ZM41.3788 29.1591C40.643 29.1591 40.0083 28.9967 39.4747 28.6719C38.9443 28.3438 38.535 27.8864 38.2467 27.2997C37.9616 26.7098 37.8191 26.0237 37.8191 25.2415C37.8191 24.4593 37.9616 23.7699 38.2467 23.1733C38.535 22.5734 38.9361 22.1061 39.4498 21.7713C39.9668 21.4332 40.5701 21.2642 41.2595 21.2642C41.6572 21.2642 42.0499 21.3305 42.4377 21.4631C42.8255 21.5956 43.1785 21.8111 43.4967 22.1094C43.8149 22.4044 44.0684 22.7955 44.2573 23.2827C44.4462 23.7699 44.5407 24.3698 44.5407 25.0824V25.5795H38.6543V24.5653H43.3475C43.3475 24.1345 43.2613 23.75 43.089 23.4119C42.92 23.0739 42.678 22.8071 42.3631 22.6115C42.0516 22.416 41.6837 22.3182 41.2595 22.3182C40.7921 22.3182 40.3878 22.4342 40.0464 22.6662C39.7083 22.8949 39.4481 23.1932 39.2658 23.5611C39.0836 23.929 38.9924 24.3234 38.9924 24.7443V25.4205C38.9924 25.9972 39.0918 26.486 39.2907 26.8871C39.4929 27.2848 39.7729 27.5881 40.1309 27.7969C40.4889 28.0024 40.9048 28.1051 41.3788 28.1051C41.687 28.1051 41.9654 28.062 42.214 27.9759C42.4659 27.8864 42.683 27.7538 42.8653 27.5781C43.0476 27.3991 43.1884 27.1771 43.2879 26.9119L44.4214 27.2301C44.3021 27.6146 44.1015 27.9527 43.8198 28.2443C43.5381 28.5327 43.1901 28.758 42.7758 28.9205C42.3615 29.0795 41.8958 29.1591 41.3788 29.1591ZM48.2156 29L45.8889 21.3636H47.1219L48.7724 27.2102H48.852L50.4827 21.3636H51.7355L53.3463 27.1903H53.4258L55.0764 21.3636H56.3094L53.9827 29H52.8293L51.1588 23.1335H51.0395L49.369 29H48.2156ZM62.118 29V21.3636H63.2515V22.5568H63.351C63.51 22.1491 63.7669 21.8326 64.1216 21.6072C64.4762 21.3786 64.9021 21.2642 65.3993 21.2642C65.903 21.2642 66.3223 21.3786 66.6571 21.6072C66.9951 21.8326 67.2586 22.1491 67.4475 22.5568H67.5271C67.7226 22.1624 68.016 21.8492 68.4071 21.6172C68.7982 21.3819 69.2672 21.2642 69.814 21.2642C70.4968 21.2642 71.0553 21.478 71.4895 21.9055C71.9236 22.3298 72.1407 22.991 72.1407 23.8892V29H70.9674V23.8892C70.9674 23.3258 70.8133 22.9231 70.5051 22.6811C70.1968 22.4392 69.8339 22.3182 69.4163 22.3182C68.8794 22.3182 68.4634 22.4806 68.1684 22.8054C67.8734 23.1269 67.726 23.5346 67.726 24.0284V29H66.5328V23.7699C66.5328 23.3357 66.3919 22.986 66.1102 22.7209C65.8285 22.4524 65.4655 22.3182 65.0214 22.3182C64.7165 22.3182 64.4315 22.3994 64.1663 22.5618C63.9045 22.7242 63.6923 22.9496 63.5299 23.2379C63.3708 23.523 63.2913 23.8527 63.2913 24.2273V29H62.118ZM77.5482 29.1591C76.8589 29.1591 76.254 28.995 75.7336 28.6669C75.2166 28.3388 74.8122 27.8797 74.5205 27.2898C74.2322 26.6998 74.088 26.0104 74.088 25.2216C74.088 24.4261 74.2322 23.7318 74.5205 23.1385C74.8122 22.5452 75.2166 22.0845 75.7336 21.7564C76.254 21.4283 76.8589 21.2642 77.5482 21.2642C78.2376 21.2642 78.8409 21.4283 79.3579 21.7564C79.8783 22.0845 80.2826 22.5452 80.571 23.1385C80.8626 23.7318 81.0085 24.4261 81.0085 25.2216C81.0085 26.0104 80.8626 26.6998 80.571 27.2898C80.2826 27.8797 79.8783 28.3388 79.3579 28.6669C78.8409 28.995 78.2376 29.1591 77.5482 29.1591ZM77.5482 28.1051C78.0719 28.1051 78.5028 27.9709 78.8409 27.7024C79.1789 27.4339 79.4292 27.081 79.5916 26.6435C79.754 26.206 79.8352 25.732 79.8352 25.2216C79.8352 24.7112 79.754 24.2356 79.5916 23.7947C79.4292 23.3539 79.1789 22.9976 78.8409 22.7259C78.5028 22.4541 78.0719 22.3182 77.5482 22.3182C77.0246 22.3182 76.5937 22.4541 76.2556 22.7259C75.9176 22.9976 75.6673 23.3539 75.5049 23.7947C75.3425 24.2356 75.2613 24.7112 75.2613 25.2216C75.2613 25.732 75.3425 26.206 75.5049 26.6435C75.6673 27.081 75.9176 27.4339 76.2556 27.7024C76.5937 27.9709 77.0246 28.1051 77.5482 28.1051ZM82.9595 29V21.3636H84.093V22.517H84.1726C84.3118 22.1392 84.5637 21.8326 84.9282 21.5973C85.2928 21.362 85.7038 21.2443 86.1612 21.2443C86.2474 21.2443 86.3551 21.246 86.4843 21.2493C86.6136 21.2526 86.7114 21.2576 86.7777 21.2642V22.4574C86.7379 22.4474 86.6468 22.4325 86.5042 22.4126C86.365 22.3894 86.2175 22.3778 86.0618 22.3778C85.6905 22.3778 85.3591 22.4557 85.0674 22.6115C84.7791 22.764 84.5504 22.9761 84.3814 23.2479C84.2156 23.5163 84.1328 23.8229 84.1328 24.1676V29H82.9595ZM91.2978 29.1591C90.562 29.1591 89.9273 28.9967 89.3936 28.6719C88.8633 28.3438 88.454 27.8864 88.1657 27.2997C87.8806 26.7098 87.7381 26.0237 87.7381 25.2415C87.7381 24.4593 87.8806 23.7699 88.1657 23.1733C88.454 22.5734 88.855 22.1061 89.3688 21.7713C89.8858 21.4332 90.489 21.2642 91.1784 21.2642C91.5762 21.2642 91.9689 21.3305 92.3567 21.4631C92.7445 21.5956 93.0975 21.8111 93.4157 22.1094C93.7338 22.4044 93.9874 22.7955 94.1763 23.2827C94.3652 23.7699 94.4597 24.3698 94.4597 25.0824V25.5795H88.5733V24.5653H93.2665C93.2665 24.1345 93.1803 23.75 93.008 23.4119C92.8389 23.0739 92.597 22.8071 92.2821 22.6115C91.9706 22.416 91.6027 22.3182 91.1784 22.3182C90.7111 22.3182 90.3068 22.4342 89.9654 22.6662C89.6273 22.8949 89.3671 23.1932 89.1848 23.5611C89.0025 23.929 88.9114 24.3234 88.9114 24.7443V25.4205C88.9114 25.9972 89.0108 26.486 89.2097 26.8871C89.4119 27.2848 89.6919 27.5881 90.0499 27.7969C90.4078 28.0024 90.8238 28.1051 91.2978 28.1051C91.606 28.1051 91.8844 28.062 92.133 27.9759C92.3849 27.8864 92.602 27.7538 92.7843 27.5781C92.9666 27.3991 93.1074 27.1771 93.2068 26.9119L94.3404 27.2301C94.2211 27.6146 94.0205 27.9527 93.7388 28.2443C93.4571 28.5327 93.1091 28.758 92.6948 28.9205C92.2805 29.0795 91.8148 29.1591 91.2978 29.1591Z" fill="#FAFAFF"/>
<path d="M109.375 19.25H101.125C100.492 19.25 100 19.7656 100 20.375V28.625C100 29.2578 100.492 29.75 101.125 29.75H109.375C109.984 29.75 110.5 29.2578 110.5 28.625V20.375C110.5 19.7656 109.984 19.25 109.375 19.25ZM109.234 28.625H101.266C101.172 28.625 101.125 28.5781 101.125 28.4844V20.5156C101.125 20.4453 101.172 20.375 101.266 20.375H109.234C109.305 20.375 109.375 20.4453 109.375 20.5156V28.4844C109.375 28.5781 109.305 28.625 109.234 28.625ZM107.969 21.5L104.781 21.5234C104.617 21.5234 104.5 21.6406 104.5 21.8047V22.4375C104.5 22.6016 104.617 22.7422 104.781 22.7188L106.141 22.6719L102.32 26.4922C102.203 26.6094 102.203 26.7734 102.32 26.8906L102.859 27.4297C102.977 27.5469 103.141 27.5469 103.258 27.4297L107.078 23.6094L107.031 24.9688C107.008 25.1328 107.148 25.25 107.312 25.25H107.945C108.109 25.25 108.227 25.1328 108.227 24.9688L108.25 21.7812C108.25 21.6406 108.109 21.5 107.969 21.5Z" fill="#FAFAFF"/>
</svg>
